mBrush1.ufo
<glyph name="quotesingle" format="1">
  <advance width="500"/>
  <unicode hex="0027"/>
  <outline>
    <contour>
      <point x="287" y="743" type="line"/>
      <point x="327" y="705"/>
      <point x="330" y="639"/>
      <point x="333" y="596" type="curve"/>
      <point x="231" y="590" type="line"/>
      <point x="230" y="611"/>
      <point x="239" y="649"/>
      <point x="217" y="671" type="curve"/>
    </contour>
  </outline>
</glyph>
<glyph name="zero" format="1">
  <advance width="500"/>
  <unicode hex="0030"/>
  <outline>
    <contour>
      <point x="245" y="637" type="curve" smooth="yes"/>
      <point x="246" y="637" type="line" smooth="yes"/>
      <point x="400" y="633"/>
      <point x="490" y="539"/>
      <point x="480" y="323" type="curve" smooth="yes"/>
      <point x="468" y="83"/>
      <point x="380" y="-73"/>
      <point x="235" y="-47" type="curve" smooth="yes"/>
      <point x="90" y="-20"/>
      <point x="9" y="55"/>
      <point x="20" y="340" type="curve" smooth="yes"/>
      <point x="26" y="485"/>
      <point x="86" y="638"/>
    </contour>
    <contour>
      <point x="245" y="535" type="line"/>
      <point x="138" y="536"/>
      <point x="124" y="415"/>
      <point x="122" y="336" type="curve" smooth="yes"/>
      <point x="115" y="153"/>
      <point x="146" y="72"/>
      <point x="253" y="53" type="curve" smooth="yes"/>
      <point x="360" y="33"/>
      <point x="374" y="225"/>
      <point x="378" y="327" type="curve" smooth="yes"/>
      <point x="384" y="453"/>
      <point x="346" y="533"/>
      <point x="244" y="535" type="curve"/>
    </contour>
  </outline>
</glyph>
<glyph name="one" format="1">
  <advance width="245"/>
  <unicode hex="0031"/>
  <outline>
    <contour>
      <point x="20" y="554" type="line"/>
      <point x="83" y="586"/>
      <point x="108" y="610"/>
      <point x="129" y="627" type="curve" smooth="yes"/>
      <point x="130" y="628" type="line"/>
      <point x="212" y="589" type="line"/>
      <point x="212" y="588" type="line" smooth="yes"/>
      <point x="213" y="405"/>
      <point x="201" y="98"/>
      <point x="203" y="-2" type="curve"/>
      <point x="101" y="-4" type="line"/>
      <point x="99" y="96"/>
      <point x="111" y="403"/>
      <point x="110" y="588" type="curve"/>
      <point x="193" y="549" type="line"/>
      <point x="168" y="528"/>
      <point x="139" y="500"/>
      <point x="66" y="464" type="curve"/>
    </contour>
  </outline>
</glyph>
<glyph name="two" format="1">
  <advance width="501"/>
  <unicode hex="0032"/>
  <outline>
    <contour>
      <point x="17" y="416" type="line"/>
      <point x="53" y="571"/>
      <point x="136" y="640"/>
      <point x="253" y="644" type="curve" smooth="yes"/>
      <point x="392" y="648"/>
      <point x="455" y="572"/>
      <point x="444" y="449" type="curve" smooth="yes"/>
      <point x="434" y="326"/>
      <point x="193" y="188"/>
      <point x="108" y="1" type="curve"/>
      <point x="55" y="72" type="line"/>
      <point x="192" y="92"/>
      <point x="445" y="86"/>
      <point x="491" y="65" type="curve"/>
      <point x="449" y="-27" type="line"/>
      <point x="409" y="-8"/>
      <point x="188" y="-10"/>
      <point x="69" y="-28" type="curve" smooth="yes"/>
      <point x="68" y="-28" type="line"/>
      <point x="16" y="42" type="line"/>
      <point x="16" y="43" type="line" smooth="yes"/>
      <point x="95" y="216"/>
      <point x="334" y="342"/>
      <point x="344" y="457" type="curve" smooth="yes"/>
      <point x="349" y="514"/>
      <point x="316" y="544"/>
      <point x="257" y="542" type="curve" smooth="yes"/>
      <point x="180" y="540"/>
      <point x="137" y="485"/>
      <point x="115" y="392" type="curve"/>
    </contour>
  </outline>
</glyph>
<glyph name="three" format="1">
  <advance width="500"/>
  <unicode hex="0033"/>
  <outline>
    <contour>
      <point x="56" y="630" type="line"/>
      <point x="187" y="619"/>
      <point x="330" y="615"/>
      <point x="422" y="628" type="curve" smooth="yes"/>
      <point x="423" y="628" type="line"/>
      <point x="465" y="543" type="line"/>
      <point x="465" y="542" type="line" smooth="yes"/>
      <point x="329" y="407"/>
      <point x="209" y="303"/>
      <point x="118" y="242" type="curve"/>
      <point x="71" y="331" type="line"/>
      <point x="299" y="421"/>
      <point x="475" y="361"/>
      <point x="484" y="189" type="curve" smooth="yes"/>
      <point x="493" y="-19"/>
      <point x="298" y="-64"/>
      <point x="202" y="-56" type="curve" smooth="yes"/>
      <point x="113" y="-49"/>
      <point x="39" y="38"/>
      <point x="6" y="78" type="curve"/>
      <point x="84" y="142" type="line"/>
      <point x="105" y="116"/>
      <point x="149" y="49"/>
      <point x="210" y="44" type="curve" smooth="yes"/>
      <point x="264" y="40"/>
      <point x="389" y="57"/>
      <point x="382" y="185" type="curve" smooth="yes"/>
      <point x="377" y="307"/>
      <point x="201" y="273"/>
      <point x="109" y="237" type="curve" smooth="yes"/>
      <point x="108" y="237" type="line"/>
      <point x="61" y="325" type="line"/>
      <point x="62" y="326" type="line" smooth="yes"/>
      <point x="149" y="385"/>
      <point x="263" y="485"/>
      <point x="393" y="614" type="curve"/>
      <point x="436" y="528" type="line"/>
      <point x="338" y="513"/>
      <point x="187" y="517"/>
      <point x="48" y="530" type="curve"/>
    </contour>
  </outline>
</glyph>
<glyph name="four" format="1">
  <advance width="500"/>
  <unicode hex="0034"/>
  <outline>
    <contour>
      <point x="207" y="609" type="line"/>
      <point x="225" y="506"/>
      <point x="137" y="287"/>
      <point x="120" y="231" type="curve"/>
      <point x="65" y="296" type="line"/>
      <point x="190" y="314"/>
      <point x="430" y="301"/>
      <point x="479" y="279" type="curve"/>
      <point x="439" y="187" type="line"/>
      <point x="396" y="205"/>
      <point x="188" y="212"/>
      <point x="79" y="196" type="curve" smooth="yes"/>
      <point x="78" y="196" type="line"/>
      <point x="23" y="260" type="line"/>
      <point x="24" y="261" type="line" smooth="yes"/>
      <point x="39" y="309"/>
      <point x="123" y="500"/>
      <point x="107" y="591" type="curve"/>
    </contour>
    <contour>
      <point x="368" y="497" type="line"/>
      <point x="353" y="408"/>
      <point x="346" y="92"/>
      <point x="343" y="1" type="curve"/>
      <point x="241" y="5" type="line"/>
      <point x="244" y="98"/>
      <point x="253" y="422"/>
      <point x="268" y="513" type="curve"/>
    </contour>
  </outline>
</glyph>
<glyph name="five" format="1">
  <advance width="513"/>
  <unicode hex="0035"/>
  <outline>
    <contour>
      <point x="444" y="525" type="line"/>
      <point x="341" y="506"/>
      <point x="189" y="501"/>
      <point x="110" y="509" type="curve"/>
      <point x="165" y="554" type="line"/>
      <point x="155" y="440"/>
      <point x="141" y="332"/>
      <point x="143" y="301" type="curve"/>
      <point x="76" y="344" type="line"/>
      <point x="158" y="373"/>
      <point x="186" y="386"/>
      <point x="269" y="386" type="curve" smooth="yes"/>
      <point x="368" y="386"/>
      <point x="478" y="347"/>
      <point x="482" y="193" type="curve" smooth="yes"/>
      <point x="485" y="63"/>
      <point x="359" y="-33"/>
      <point x="273" y="-39" type="curve" smooth="yes"/>
      <point x="135" y="-50"/>
      <point x="50" y="31"/>
      <point x="25" y="141" type="curve"/>
      <point x="123" y="163" type="line"/>
      <point x="138" y="101"/>
      <point x="187" y="56"/>
      <point x="265" y="61" type="curve" smooth="yes"/>
      <point x="313" y="65"/>
      <point x="383" y="119"/>
      <point x="380" y="191" type="curve" smooth="yes"/>
      <point x="378" y="271"/>
      <point x="318" y="284"/>
      <point x="269" y="284" type="curve" smooth="yes"/>
      <point x="200" y="284"/>
      <point x="178" y="273"/>
      <point x="110" y="248" type="curve" smooth="yes"/>
      <point x="109" y="248" type="line"/>
      <point x="43" y="290" type="line"/>
      <point x="43" y="291" type="line" smooth="yes"/>
      <point x="39" y="326"/>
      <point x="53" y="442"/>
      <point x="65" y="564" type="curve" smooth="yes"/>
      <point x="65" y="565" type="line"/>
      <point x="119" y="609" type="line"/>
      <point x="120" y="609" type="line" smooth="yes"/>
      <point x="191" y="603"/>
      <point x="331" y="608"/>
      <point x="426" y="625" type="curve"/>
    </contour>
  </outline>
</glyph>
<glyph name="six" format="1">
  <advance width="500"/>
  <unicode hex="0036"/>
  <outline>
    <contour>
      <point x="397" y="568" type="line"/>
      <point x="300" y="450"/>
      <point x="111" y="271"/>
      <point x="117" y="166" type="curve" smooth="yes"/>
      <point x="122" y="59"/>
      <point x="206" y="50"/>
      <point x="252" y="48" type="curve" smooth="yes"/>
      <point x="292" y="45"/>
      <point x="386" y="56"/>
      <point x="390" y="119" type="curve" smooth="yes"/>
      <point x="394" y="171"/>
      <point x="362" y="237"/>
      <point x="263" y="242" type="curve"/>
      <point x="269" y="344" type="line"/>
      <point x="456" y="333"/>
      <point x="498" y="203"/>
      <point x="492" y="113" type="curve" smooth="yes"/>
      <point x="484" y="0"/>
      <point x="336" y="-59"/>
      <point x="246" y="-54" type="curve" smooth="yes"/>
      <point x="162" y="-48"/>
      <point x="26" y="-23"/>
      <point x="15" y="160" type="curve" smooth="yes"/>
      <point x="9" y="281"/>
      <point x="204" y="494"/>
      <point x="319" y="632" type="curve"/>
    </contour>
  </outline>
</glyph>
<glyph name="seven" format="1">
  <advance width="500"/>
  <unicode hex="0037"/>
  <outline>
    <contour>
      <point x="52" y="631" type="line"/>
      <point x="139" y="626"/>
      <point x="348" y="632"/>
      <point x="450" y="643" type="curve" smooth="yes"/>
      <point x="451" y="643" type="line"/>
      <point x="491" y="556" type="line"/>
      <point x="490" y="556" type="line" smooth="yes"/>
      <point x="317" y="396"/>
      <point x="189" y="99"/>
      <point x="185" y="-2" type="curve"/>
      <point x="83" y="2" type="line"/>
      <point x="89" y="115"/>
      <point x="227" y="450"/>
      <point x="422" y="630" type="curve"/>
      <point x="462" y="543" type="line"/>
      <point x="356" y="530"/>
      <point x="137" y="524"/>
      <point x="46" y="529" type="curve"/>
    </contour>
  </outline>
</glyph>
<glyph name="eight" format="1">
  <advance width="500"/>
  <unicode hex="0038"/>
  <outline>
    <contour>
      <point x="265" y="379" type="line"/>
      <point x="311" y="450"/>
      <point x="313" y="531"/>
      <point x="231" y="537" type="curve" smooth="yes"/>
      <point x="190" y="540"/>
      <point x="142" y="515"/>
      <point x="142" y="455" type="curve" smooth="yes"/>
      <point x="142" y="409"/>
      <point x="236" y="363"/>
      <point x="292" y="328" type="curve" smooth="yes"/>
      <point x="385" y="270"/>
      <point x="498" y="209"/>
      <point x="482" y="98" type="curve" smooth="yes"/>
      <point x="458" y="-74"/>
      <point x="266" y="-65"/>
      <point x="195" y="-48" type="curve" smooth="yes"/>
      <point x="-7" y="0"/>
      <point x="-9" y="109"/>
      <point x="107" y="279" type="curve"/>
      <point x="191" y="221" type="line"/>
      <point x="143" y="151"/>
      <point x="103" y="78"/>
      <point x="219" y="50" type="curve" smooth="yes"/>
      <point x="250" y="43"/>
      <point x="368" y="10"/>
      <point x="382" y="112" type="curve" smooth="yes"/>
      <point x="392" y="187"/>
      <point x="289" y="210"/>
      <point x="238" y="242" type="curve" smooth="yes"/>
      <point x="144" y="301"/>
      <point x="40" y="389"/>
      <point x="40" y="455" type="curve"/>
      <point x="40" y="589"/>
      <point x="146" y="644"/>
      <point x="239" y="637" type="curve" smooth="yes"/>
      <point x="383" y="627"/>
      <point x="485" y="536"/>
      <point x="351" y="325" type="curve"/>
    </contour>
  </outline>
</glyph>
<glyph name="nine" format="1">
  <advance width="500"/>
  <unicode hex="0039"/>
  <outline>
    <contour>
      <point x="195" y="12" type="line"/>
      <point x="255" y="111"/>
      <point x="358" y="237"/>
      <point x="376" y="343" type="curve" smooth="yes"/>
      <point x="390" y="423"/>
      <point x="362" y="531"/>
      <point x="269" y="544" type="curve" smooth="yes"/>
      <point x="183" y="556"/>
      <point x="124" y="483"/>
      <point x="129" y="406" type="curve" smooth="yes"/>
      <point x="132" y="340"/>
      <point x="167" y="254"/>
      <point x="279" y="308" type="curve"/>
      <point x="323" y="218" type="line"/>
      <point x="113" y="114"/>
      <point x="34" y="270"/>
      <point x="27" y="400" type="curve" smooth="yes"/>
      <point x="20" y="541"/>
      <point x="131" y="666"/>
      <point x="283" y="644" type="curve" smooth="yes"/>
      <point x="428" y="623"/>
      <point x="500" y="467"/>
      <point x="476" y="325" type="curve" smooth="yes"/>
      <point x="456" y="209"/>
      <point x="347" y="69"/>
      <point x="281" y="-40" type="curve"/>
    </contour>
  </outline>
</glyph>
<glyph name="A" format="1">
  <advance width="500"/>
  <unicode hex="0041"/>
  <outline>
    <contour>
      <point x="340" y="741" type="line"/>
      <point x="333" y="606"/>
      <point x="103" y="72"/>
      <point x="114" y="6" type="curve"/>
      <point x="14" y="-10" type="line"/>
      <point x="3" y="58"/>
      <point x="231" y="606"/>
      <point x="238" y="747" type="curve"/>
    </contour>
    <contour>
      <point x="365" y="697" type="line"/>
      <point x="388" y="648"/>
      <point x="394" y="154"/>
      <point x="487" y="27" type="curve"/>
      <point x="405" y="-33" type="line"/>
      <point x="310" y="98"/>
      <point x="298" y="602"/>
      <point x="273" y="653" type="curve"/>
    </contour>
    <contour>
      <point x="358" y="223" type="line"/>
      <point x="284" y="204"/>
      <point x="144" y="196"/>
      <point x="65" y="216" type="curve"/>
      <point x="89" y="314" type="line"/>
      <point x="156" y="298"/>
      <point x="272" y="306"/>
      <point x="334" y="321" type="curve"/>
    </contour>
  </outline>
</glyph>
<glyph name="B" format="1">
  <advance width="500"/>
  <unicode hex="0042"/>
  <outline>
    <contour>
      <point x="147" y="716" type="line"/>
      <point x="147" y="585"/>
      <point x="153" y="454"/>
      <point x="158" y="324" type="curve" smooth="yes"/>
      <point x="163" y="211"/>
      <point x="167" y="98"/>
      <point x="167" y="-16" type="curve" smooth="yes"/>
      <point x="167" y="-18"/>
      <point x="171" y="-19"/>
      <point x="171" y="-16" type="curve" smooth="yes"/>
      <point x="171" y="114"/>
      <point x="165" y="244"/>
      <point x="160" y="374" type="curve" smooth="yes"/>
      <point x="155" y="488"/>
      <point x="151" y="602"/>
      <point x="151" y="716" type="curve" smooth="yes"/>
      <point x="151" y="719"/>
      <point x="147" y="720"/>
      <point x="147" y="716" type="curve"/>
    </contour>
    <contour>
      <point x="69" y="730" type="line"/>
      <point x="156" y="749"/>
      <point x="262" y="769"/>
      <point x="341" y="715" type="curve" smooth="yes"/>
      <point x="382" y="687"/>
      <point x="409" y="642"/>
      <point x="416" y="593" type="curve" smooth="yes"/>
      <point x="422" y="546"/>
      <point x="410" y="497"/>
      <point x="384" y="457" type="curve" smooth="yes"/>
      <point x="364" y="425"/>
      <point x="335" y="400"/>
      <point x="302" y="380" type="curve" smooth="yes"/>
      <point x="267" y="360"/>
      <point x="229" y="345"/>
      <point x="192" y="326" type="curve" smooth="yes"/>
      <point x="191" y="326"/>
      <point x="190" y="322"/>
      <point x="193" y="322" type="curve" smooth="yes"/>
      <point x="227" y="322"/>
      <point x="262" y="318"/>
      <point x="295" y="310" type="curve" smooth="yes"/>
      <point x="330" y="302"/>
      <point x="364" y="288"/>
      <point x="390" y="264" type="curve" smooth="yes"/>
      <point x="418" y="239"/>
      <point x="430" y="203"/>
      <point x="427" y="166" type="curve" smooth="yes"/>
      <point x="426" y="148"/>
      <point x="421" y="131"/>
      <point x="411" y="116" type="curve" smooth="yes"/>
      <point x="402" y="102"/>
      <point x="390" y="91"/>
      <point x="376" y="82" type="curve" smooth="yes"/>
      <point x="345" y="62"/>
      <point x="309" y="51"/>
      <point x="275" y="40" type="curve" smooth="yes"/>
      <point x="243" y="31"/>
      <point x="209" y="23"/>
      <point x="179" y="8" type="curve" smooth="yes"/>
      <point x="178" y="7"/>
      <point x="177" y="7"/>
      <point x="176" y="6" type="curve" smooth="yes"/>
      <point x="174" y="5"/>
      <point x="175" y="1"/>
      <point x="178" y="2" type="curve" smooth="yes"/>
      <point x="207" y="18"/>
      <point x="241" y="26"/>
      <point x="273" y="35" type="curve" smooth="yes"/>
      <point x="308" y="45"/>
      <point x="343" y="56"/>
      <point x="374" y="75" type="curve" smooth="yes"/>
      <point x="402" y="93"/>
      <point x="423" y="119"/>
      <point x="429" y="152" type="curve" smooth="yes"/>
      <point x="436" y="188"/>
      <point x="429" y="226"/>
      <point x="406" y="254" type="curve" smooth="yes"/>
      <point x="385" y="281"/>
      <point x="353" y="298"/>
      <point x="320" y="308" type="curve" smooth="yes"/>
      <point x="287" y="319"/>
      <point x="251" y="324"/>
      <point x="216" y="326" type="curve" smooth="yes"/>
      <point x="208" y="327"/>
      <point x="201" y="327"/>
      <point x="193" y="327" type="curve"/>
      <point x="193" y="325"/>
      <point x="193" y="324"/>
      <point x="194" y="322" type="curve"/>
      <point x="244" y="347"/>
      <point x="298" y="366"/>
      <point x="342" y="402" type="curve" smooth="yes"/>
      <point x="377" y="431"/>
      <point x="403" y="474"/>
      <point x="415" y="519" type="curve" smooth="yes"/>
      <point x="426" y="563"/>
      <point x="422" y="611"/>
      <point x="402" y="652" type="curve" smooth="yes"/>
      <point x="381" y="694"/>
      <point x="343" y="726"/>
      <point x="299" y="742" type="curve" smooth="yes"/>
      <point x="263" y="754"/>
      <point x="223" y="756"/>
      <point x="186" y="754" type="curve" smooth="yes"/>
      <point x="146" y="751"/>
      <point x="107" y="743"/>
      <point x="69" y="735" type="curve" smooth="yes"/>
      <point x="66" y="734"/>
      <point x="66" y="729"/>
      <point x="69" y="730" type="curve"/>
    </contour>
  </outline>
</glyph>
<glyph name="D" format="1">
  <advance width="500"/>
  <unicode hex="0044"/>
  <outline>
    <contour>
      <point x="92" y="760" type="line"/>
      <point x="92" y="640"/>
      <point x="108" y="521"/>
      <point x="117" y="401" type="curve" smooth="yes"/>
      <point x="126" y="281"/>
      <point x="129" y="160"/>
      <point x="103" y="42" type="curve" smooth="yes"/>
      <point x="101" y="34"/>
      <point x="99" y="25"/>
      <point x="96" y="17" type="curve" smooth="yes"/>
      <point x="96" y="14"/>
      <point x="100" y="13"/>
      <point x="101" y="16" type="curve" smooth="yes"/>
      <point x="132" y="131"/>
      <point x="132" y="252"/>
      <point x="124" y="371" type="curve" smooth="yes"/>
      <point x="116" y="492"/>
      <point x="100" y="611"/>
      <point x="98" y="732" type="curve" smooth="yes"/>
      <point x="97" y="742"/>
      <point x="97" y="751"/>
      <point x="97" y="760" type="curve" smooth="yes"/>
      <point x="97" y="763"/>
      <point x="92" y="763"/>
      <point x="92" y="760" type="curve"/>
    </contour>
    <contour>
      <point x="27" y="750" type="line"/>
      <point x="94" y="767"/>
      <point x="165" y="767"/>
      <point x="231" y="743" type="curve" smooth="yes"/>
      <point x="288" y="722"/>
      <point x="338" y="683"/>
      <point x="375" y="634" type="curve" smooth="yes"/>
      <point x="413" y="585"/>
      <point x="438" y="527"/>
      <point x="449" y="466" type="curve" smooth="yes"/>
      <point x="461" y="405"/>
      <point x="459" y="341"/>
      <point x="442" y="281" type="curve" smooth="yes"/>
      <point x="424" y="218"/>
      <point x="388" y="161"/>
      <point x="340" y="118" type="curve" smooth="yes"/>
      <point x="313" y="94"/>
      <point x="283" y="76"/>
      <point x="252" y="59" type="curve" smooth="yes"/>
      <point x="203" y="31"/>
      <point x="148" y="17"/>
      <point x="94" y="3" type="curve" smooth="yes"/>
      <point x="92" y="2"/>
      <point x="93" y="-3"/>
      <point x="95" y="-2" type="curve" smooth="yes"/>
      <point x="153" y="13"/>
      <point x="211" y="29"/>
      <point x="263" y="59" type="curve" smooth="yes"/>
      <point x="279" y="69"/>
      <point x="296" y="78"/>
      <point x="311" y="89" type="curve" smooth="yes"/>
      <point x="325" y="99"/>
      <point x="338" y="110"/>
      <point x="351" y="122" type="curve" smooth="yes"/>
      <point x="397" y="166"/>
      <point x="430" y="223"/>
      <point x="447" y="285" type="curve" smooth="yes"/>
      <point x="463" y="345"/>
      <point x="465" y="409"/>
      <point x="453" y="470" type="curve" smooth="yes"/>
      <point x="441" y="530"/>
      <point x="416" y="588"/>
      <point x="379" y="636" type="curve" smooth="yes"/>
      <point x="342" y="685"/>
      <point x="293" y="723"/>
      <point x="237" y="745" type="curve" smooth="yes"/>
      <point x="173" y="770"/>
      <point x="104" y="772"/>
      <point x="38" y="757" type="curve" smooth="yes"/>
      <point x="34" y="757"/>
      <point x="30" y="756"/>
      <point x="26" y="755" type="curve" smooth="yes"/>
      <point x="24" y="754"/>
      <point x="25" y="749"/>
      <point x="27" y="750" type="curve"/>
    </contour>
  </outline>
</glyph>
<glyph name="E" format="1">
  <advance width="357"/>
  <unicode hex="0045"/>
  <outline>
    <contour>
      <point x="313" y="746" type="line"/>
      <point x="270" y="770"/>
      <point x="219" y="779"/>
      <point x="171" y="764" type="curve" smooth="yes"/>
      <point x="147" y="756"/>
      <point x="126" y="741"/>
      <point x="108" y="724" type="curve" smooth="yes"/>
      <point x="90" y="708"/>
      <point x="78" y="688"/>
      <point x="71" y="666" type="curve" smooth="yes"/>
      <point x="56" y="621"/>
      <point x="62" y="572"/>
      <point x="64" y="526" type="curve" smooth="yes"/>
      <point x="65" y="508"/>
      <point x="66" y="490"/>
      <point x="64" y="472" type="curve" smooth="yes"/>
      <point x="62" y="457"/>
      <point x="60" y="442"/>
      <point x="58" y="427" type="curve" smooth="yes"/>
      <point x="46" y="350"/>
      <point x="30" y="274"/>
      <point x="25" y="196" type="curve" smooth="yes"/>
      <point x="23" y="160"/>
      <point x="23" y="124"/>
      <point x="31" y="89" type="curve" smooth="yes"/>
      <point x="37" y="62"/>
      <point x="49" y="35"/>
      <point x="72" y="18" type="curve" smooth="yes"/>
      <point x="105" y="-8"/>
      <point x="151" y="-6"/>
      <point x="190" y="-3" type="curve" smooth="yes"/>
      <point x="214" y="-1"/>
      <point x="239" y="3"/>
      <point x="263" y="7" type="curve" smooth="yes"/>
      <point x="285" y="10"/>
      <point x="306" y="14"/>
      <point x="328" y="14" type="curve" smooth="yes"/>
      <point x="329" y="14"/>
      <point x="331" y="14"/>
      <point x="332" y="14" type="curve" smooth="yes"/>
      <point x="335" y="14"/>
      <point x="335" y="18"/>
      <point x="332" y="18" type="curve" smooth="yes"/>
      <point x="311" y="18"/>
      <point x="290" y="15"/>
      <point x="269" y="12" type="curve" smooth="yes"/>
      <point x="245" y="8"/>
      <point x="220" y="4"/>
      <point x="196" y="2" type="curve" smooth="yes"/>
      <point x="156" y="-3"/>
      <point x="107" y="-5"/>
      <point x="74" y="22" type="curve" smooth="yes"/>
      <point x="51" y="40"/>
      <point x="40" y="69"/>
      <point x="35" y="97" type="curve" smooth="yes"/>
      <point x="28" y="133"/>
      <point x="28" y="170"/>
      <point x="31" y="206" type="curve" smooth="yes"/>
      <point x="36" y="283"/>
      <point x="52" y="359"/>
      <point x="64" y="435" type="curve" smooth="yes"/>
      <point x="66" y="450"/>
      <point x="68" y="464"/>
      <point x="69" y="479" type="curve" smooth="yes"/>
      <point x="71" y="499"/>
      <point x="70" y="519"/>
      <point x="69" y="539" type="curve" smooth="yes"/>
      <point x="66" y="585"/>
      <point x="62" y="635"/>
      <point x="81" y="679" type="curve" smooth="yes"/>
      <point x="85" y="688"/>
      <point x="90" y="696"/>
      <point x="96" y="704" type="curve" smooth="yes"/>
      <point x="103" y="713"/>
      <point x="111" y="721"/>
      <point x="119" y="728" type="curve" smooth="yes"/>
      <point x="136" y="744"/>
      <point x="157" y="756"/>
      <point x="179" y="762" type="curve" smooth="yes"/>
      <point x="223" y="775"/>
      <point x="271" y="765"/>
      <point x="310" y="743" type="curve" smooth="yes"/>
      <point x="313" y="742"/>
      <point x="316" y="744"/>
      <point x="313" y="746" type="curve"/>
    </contour>
    <contour>
      <point x="40" y="350" type="line"/>
      <point x="102" y="350"/>
      <point x="163" y="359"/>
      <point x="225" y="370" type="curve" smooth="yes"/>
      <point x="228" y="371"/>
      <point x="225" y="375"/>
      <point x="223" y="374" type="curve" smooth="yes"/>
      <point x="162" y="363"/>
      <point x="101" y="354"/>
      <point x="40" y="354" type="curve" smooth="yes"/>
      <point x="36" y="354"/>
      <point x="37" y="350"/>
      <point x="40" y="350" type="curve"/>
    </contour>
  </outline>
</glyph>
<glyph name="F" format="1">
  <advance width="414"/>
  <unicode hex="0046"/>
  <outline>
    <contour>
      <point x="353" y="749" type="line"/>
      <point x="313" y="747"/>
      <point x="273" y="753"/>
      <point x="233" y="755" type="curve" smooth="yes"/>
      <point x="198" y="756"/>
      <point x="159" y="756"/>
      <point x="127" y="739" type="curve" smooth="yes"/>
      <point x="112" y="731"/>
      <point x="100" y="719"/>
      <point x="91" y="705" type="curve" smooth="yes"/>
      <point x="80" y="686"/>
      <point x="76" y="664"/>
      <point x="72" y="643" type="curve" smooth="yes"/>
      <point x="62" y="590"/>
      <point x="60" y="536"/>
      <point x="61" y="483" type="curve" smooth="yes"/>
      <point x="61" y="426"/>
      <point x="65" y="370"/>
      <point x="67" y="314" type="curve" smooth="yes"/>
      <point x="69" y="288"/>
      <point x="70" y="262"/>
      <point x="71" y="235" type="curve" smooth="yes"/>
      <point x="71" y="205"/>
      <point x="69" y="175"/>
      <point x="68" y="146" type="curve" smooth="yes"/>
      <point x="66" y="97"/>
      <point x="64" y="47"/>
      <point x="59" y="-1" type="curve" smooth="yes"/>
      <point x="59" y="-4"/>
      <point x="62" y="-5"/>
      <point x="63" y="-2" type="curve" smooth="yes"/>
      <point x="70" y="62"/>
      <point x="71" y="127"/>
      <point x="74" y="191" type="curve" smooth="yes"/>
      <point x="76" y="245"/>
      <point x="72" y="299"/>
      <point x="69" y="353" type="curve" smooth="yes"/>
      <point x="66" y="409"/>
      <point x="63" y="465"/>
      <point x="64" y="522" type="curve" smooth="yes"/>
      <point x="65" y="549"/>
      <point x="67" y="576"/>
      <point x="70" y="604" type="curve" smooth="yes"/>
      <point x="73" y="628"/>
      <point x="76" y="654"/>
      <point x="84" y="678" type="curve" smooth="yes"/>
      <point x="89" y="696"/>
      <point x="99" y="713"/>
      <point x="114" y="725" type="curve" smooth="yes"/>
      <point x="127" y="736"/>
      <point x="144" y="742"/>
      <point x="160" y="746" type="curve" smooth="yes"/>
      <point x="198" y="754"/>
      <point x="239" y="750"/>
      <point x="277" y="747" type="curve" smooth="yes"/>
      <point x="302" y="745"/>
      <point x="328" y="743"/>
      <point x="353" y="744" type="curve" smooth="yes"/>
      <point x="355" y="744"/>
      <point x="355" y="749"/>
      <point x="353" y="749" type="curve"/>
    </contour>
    <contour>
      <point x="64" y="368" type="line"/>
      <point x="120" y="368"/>
      <point x="176" y="376"/>
      <point x="232" y="372" type="curve" smooth="yes"/>
      <point x="235" y="372"/>
      <point x="236" y="377"/>
      <point x="233" y="377" type="curve" smooth="yes"/>
      <point x="177" y="381"/>
      <point x="121" y="373"/>
      <point x="65" y="373" type="curve" smooth="yes"/>
      <point x="63" y="373"/>
      <point x="62" y="368"/>
      <point x="64" y="368" type="curve"/>
    </contour>
  </outline>
</glyph>
<glyph name="G" format="1">
  <advance width="447.0"/>
  <unicode hex="0047"/>
  <outline>
    <contour>
      <point x="386" y="681" type="line"/>
      <point x="370" y="720"/>
      <point x="344" y="758"/>
      <point x="306" y="777" type="curve" smooth="yes"/>
      <point x="275" y="793"/>
      <point x="239" y="793"/>
      <point x="207" y="780" type="curve" smooth="yes"/>
      <point x="167" y="763"/>
      <point x="138" y="729"/>
      <point x="116" y="693" type="curve" smooth="yes"/>
      <point x="90" y="650"/>
      <point x="77" y="600"/>
      <point x="68" y="552" type="curve" smooth="yes"/>
      <point x="59" y="500"/>
      <point x="54" y="447"/>
      <point x="51" y="395" type="curve" smooth="yes"/>
      <point x="49" y="370"/>
      <point x="48" y="345"/>
      <point x="47" y="320" type="curve" smooth="yes"/>
      <point x="46" y="298"/>
      <point x="44" y="276"/>
      <point x="43" y="254" type="curve" smooth="yes"/>
      <point x="40" y="172"/>
      <point x="46" y="75"/>
      <point x="113" y="17" type="curve" smooth="yes"/>
      <point x="146" y="-12"/>
      <point x="192" y="-28"/>
      <point x="236" y="-29" type="curve" smooth="yes"/>
      <point x="275" y="-29"/>
      <point x="311" y="-14"/>
      <point x="338" y="12" type="curve" smooth="yes"/>
      <point x="368" y="41"/>
      <point x="383" y="81"/>
      <point x="389" y="121" type="curve" smooth="yes"/>
      <point x="391" y="142"/>
      <point x="392" y="163"/>
      <point x="392" y="184" type="curve" smooth="yes"/>
      <point x="393" y="203"/>
      <point x="393" y="222"/>
      <point x="391" y="241" type="curve" smooth="yes"/>
      <point x="388" y="271"/>
      <point x="381" y="303"/>
      <point x="360" y="326" type="curve" smooth="yes"/>
      <point x="337" y="352"/>
      <point x="303" y="359"/>
      <point x="270" y="360" type="curve" smooth="yes"/>
      <point x="259" y="360"/>
      <point x="247" y="359"/>
      <point x="236" y="358" type="curve" smooth="yes"/>
      <point x="234" y="358"/>
      <point x="232" y="354"/>
      <point x="235" y="354" type="curve" smooth="yes"/>
      <point x="272" y="358"/>
      <point x="314" y="357"/>
      <point x="345" y="334" type="curve" smooth="yes"/>
      <point x="369" y="315"/>
      <point x="380" y="284"/>
      <point x="384" y="255" type="curve" smooth="yes"/>
      <point x="390" y="216"/>
      <point x="388" y="177"/>
      <point x="385" y="138" type="curve" smooth="yes"/>
      <point x="383" y="96"/>
      <point x="370" y="53"/>
      <point x="341" y="21" type="curve" smooth="yes"/>
      <point x="315" y="-9"/>
      <point x="277" y="-25"/>
      <point x="237" y="-25" type="curve" smooth="yes"/>
      <point x="214" y="-25"/>
      <point x="192" y="-19"/>
      <point x="170" y="-11" type="curve" smooth="yes"/>
      <point x="148" y="-3"/>
      <point x="128" y="9"/>
      <point x="111" y="25" type="curve" smooth="yes"/>
      <point x="47" y="86"/>
      <point x="44" y="186"/>
      <point x="48" y="268" type="curve" smooth="yes"/>
      <point x="51" y="316"/>
      <point x="54" y="364"/>
      <point x="57" y="412" type="curve" smooth="yes"/>
      <point x="60" y="465"/>
      <point x="66" y="518"/>
      <point x="77" y="571" type="curve" smooth="yes"/>
      <point x="87" y="620"/>
      <point x="103" y="669"/>
      <point x="132" y="710" type="curve" smooth="yes"/>
      <point x="156" y="744"/>
      <point x="189" y="773"/>
      <point x="229" y="783" type="curve" smooth="yes"/>
      <point x="259" y="790"/>
      <point x="289" y="784"/>
      <point x="314" y="767" type="curve" smooth="yes"/>
      <point x="346" y="747"/>
      <point x="367" y="713"/>
      <point x="381" y="679" type="curve" smooth="yes"/>
      <point x="382" y="677"/>
      <point x="387" y="679"/>
      <point x="386" y="681" type="curve"/>
    </contour>
  </outline>
</glyph>
<glyph name="H" format="1">
  <advance width="580.0"/>
  <unicode hex="0048"/>
  <outline>
    <contour>
      <point x="156" y="739" type="line"/>
      <point x="152" y="680"/>
      <point x="135" y="62"/>
      <point x="143" y="22" type="curve"/>
      <point x="45" y="0" type="line"/>
      <point x="35" y="42"/>
      <point x="50" y="686"/>
      <point x="56" y="747" type="curve"/>
    </contour>
    <contour>
      <point x="553" y="726" type="line"/>
      <point x="546" y="676"/>
      <point x="477" y="199"/>
      <point x="532" y="16" type="curve"/>
      <point x="434" y="-12" type="line"/>
      <point x="377" y="181"/>
      <point x="446" y="686"/>
      <point x="453" y="740" type="curve"/>
    </contour>
    <contour>
      <point x="462" y="294" type="line"/>
      <point x="354" y="294"/>
      <point x="152" y="299"/>
      <point x="97" y="296" type="curve"/>
      <point x="91" y="398" type="line"/>
      <point x="148" y="401"/>
      <point x="352" y="396"/>
      <point x="462" y="396" type="curve"/>
    </contour>
  </outline>
</glyph>
<glyph name="I" format="1">
  <advance width="266.0"/>
  <unicode hex="0049"/>
  <outline>
    <contour>
      <point x="62" y="748" type="curve" smooth="yes"/>
      <point x="62" y="748"/>
      <point x="61" y="748"/>
      <point x="61" y="748" type="curve" smooth="yes"/>
      <point x="53" y="748"/>
      <point x="45" y="766"/>
      <point x="56" y="772" type="curve" smooth="yes"/>
      <point x="56" y="772"/>
      <point x="58" y="772"/>
      <point x="58" y="772" type="curve" smooth="yes"/>
      <point x="66" y="774"/>
      <point x="71" y="774"/>
      <point x="78" y="773" type="curve" smooth="yes"/>
      <point x="122" y="767"/>
      <point x="142" y="721"/>
      <point x="152" y="683" type="curve" smooth="yes"/>
      <point x="168" y="626"/>
      <point x="169" y="564"/>
      <point x="168" y="504" type="curve" smooth="yes"/>
      <point x="168" y="436"/>
      <point x="163" y="368"/>
      <point x="157" y="301" type="curve" smooth="yes"/>
      <point x="152" y="249"/>
      <point x="146" y="196"/>
      <point x="142" y="144" type="curve" smooth="yes"/>
      <point x="140" y="124"/>
      <point x="140" y="103"/>
      <point x="138" y="83" type="curve" smooth="yes"/>
      <point x="136" y="62"/>
      <point x="125" y="11"/>
      <point x="161" y="9" type="curve"/>
      <point x="160" y="9" type="line"/>
      <point x="163" y="-11"/>
      <point x="163" y="-16"/>
      <point x="161" y="-16" type="curve" smooth="yes"/>
      <point x="161" y="-16"/>
      <point x="160" y="-16"/>
      <point x="160" y="-16" type="curve" smooth="yes"/>
      <point x="149" y="-14"/>
      <point x="136" y="-10"/>
      <point x="129" y="-2" type="curve" smooth="yes"/>
      <point x="116" y="12"/>
      <point x="113" y="32"/>
      <point x="113" y="49" type="curve" smooth="yes"/>
      <point x="113" y="67"/>
      <point x="115" y="85"/>
      <point x="116" y="104" type="curve" smooth="yes"/>
      <point x="117" y="122"/>
      <point x="118" y="140"/>
      <point x="119" y="158" type="curve" smooth="yes"/>
      <point x="124" y="212"/>
      <point x="130" y="266"/>
      <point x="134" y="321" type="curve" smooth="yes"/>
      <point x="140" y="388"/>
      <point x="145" y="455"/>
      <point x="145" y="523" type="curve" smooth="yes"/>
      <point x="145" y="555"/>
      <point x="143" y="585"/>
      <point x="140" y="616" type="curve" smooth="yes"/>
      <point x="138" y="641"/>
      <point x="134" y="668"/>
      <point x="126" y="691" type="curve" smooth="yes"/>
      <point x="120" y="707"/>
      <point x="113" y="725"/>
      <point x="100" y="737" type="curve" smooth="yes"/>
      <point x="90" y="747"/>
      <point x="76" y="750"/>
    </contour>
  </outline>
</glyph>
<glyph name="J" format="1">
  <advance width="500"/>
  <unicode hex="004A"/>
  <outline>
    <contour>
      <point x="51" y="754" type="line"/>
      <point x="142" y="775"/>
      <point x="366" y="774"/>
      <point x="430" y="758" type="curve" smooth="yes"/>
      <point x="431" y="758" type="line"/>
      <point x="468" y="717" type="line"/>
      <point x="468" y="716" type="line" smooth="yes"/>
      <point x="491" y="560"/>
      <point x="528" y="-43"/>
      <point x="260" y="-45" type="curve" smooth="yes"/>
      <point x="134" y="-46"/>
      <point x="39" y="60"/>
      <point x="37" y="163" type="curve"/>
      <point x="139" y="165" type="line"/>
      <point x="139" y="108"/>
      <point x="196" y="57"/>
      <point x="262" y="57" type="curve" smooth="yes"/>
      <point x="439" y="52"/>
      <point x="379" y="628"/>
      <point x="368" y="702" type="curve"/>
      <point x="406" y="660" type="line"/>
      <point x="350" y="674"/>
      <point x="152" y="673"/>
      <point x="73" y="656" type="curve"/>
    </contour>
  </outline>
</glyph>
<glyph name="K" format="1">
  <advance width="500"/>
  <unicode hex="004B"/>
  <outline>
    <contour>
      <point x="133" y="758" type="line"/>
      <point x="145" y="668"/>
      <point x="139" y="62"/>
      <point x="139" y="-8" type="curve"/>
      <point x="37" y="-8" type="line"/>
      <point x="37" y="60"/>
      <point x="45" y="656"/>
      <point x="33" y="744" type="curve"/>
    </contour>
    <contour>
      <point x="463" y="744" type="line"/>
      <point x="456" y="635"/>
      <point x="290" y="256"/>
      <point x="96" y="238" type="curve"/>
      <point x="86" y="338" type="line"/>
      <point x="244" y="354"/>
      <point x="356" y="667"/>
      <point x="361" y="750" type="curve"/>
    </contour>
    <contour>
      <point x="308" y="448" type="line"/>
      <point x="392" y="386"/>
      <point x="494" y="87"/>
      <point x="508" y="6" type="curve"/>
      <point x="408" y="-12" type="line"/>
      <point x="396" y="57"/>
      <point x="318" y="314"/>
      <point x="248" y="368" type="curve"/>
    </contour>
  </outline>
</glyph>
<glyph name="L" format="1">
  <advance width="500"/>
  <unicode hex="004C"/>
  <outline>
    <contour>
      <point x="157" y="750" type="line"/>
      <point x="167" y="679"/>
      <point x="164" y="85"/>
      <point x="163" y="-1" type="curve"/>
      <point x="108" y="50" type="line"/>
      <point x="225" y="61"/>
      <point x="437" y="52"/>
      <point x="470" y="48" type="curve"/>
      <point x="458" y="-52" type="line"/>
      <point x="427" y="-48"/>
      <point x="227" y="-41"/>
      <point x="116" y="-50" type="curve" smooth="yes"/>
      <point x="115" y="-51" type="line"/>
      <point x="61" y="0" type="line"/>
      <point x="63" y="-1" type="line" smooth="yes"/>
      <point x="64" y="83"/>
      <point x="69" y="665"/>
      <point x="59" y="734" type="curve"/>
    </contour>
  </outline>
</glyph>
<glyph name="M" format="1">
  <advance width="553"/>
  <unicode hex="004D"/>
  <outline>
    <contour>
      <point x="21" y="-5" type="line"/>
      <point x="22" y="115"/>
      <point x="61" y="688"/>
      <point x="70" y="741" type="curve" smooth="yes"/>
      <point x="71" y="745" type="line"/>
      <point x="160" y="768" type="line"/>
      <point x="161" y="767" type="line" smooth="yes"/>
      <point x="278" y="619"/>
      <point x="341" y="365"/>
      <point x="341" y="299" type="curve"/>
      <point x="245" y="323" type="line"/>
      <point x="275" y="378"/>
      <point x="374" y="661"/>
      <point x="375" y="729" type="curve" smooth="yes"/>
      <point x="375" y="730" type="line"/>
      <point x="474" y="744" type="line"/>
      <point x="474" y="743" type="line" smooth="yes"/>
      <point x="545" y="521"/>
      <point x="527" y="20"/>
      <point x="526" y="-3" type="curve"/>
      <point x="424" y="1" type="line"/>
      <point x="425" y="24"/>
      <point x="445" y="501"/>
      <point x="378" y="713" type="curve"/>
      <point x="477" y="727" type="line"/>
      <point x="476" y="653"/>
      <point x="367" y="336"/>
      <point x="335" y="275" type="curve" smooth="yes"/>
      <point x="334" y="274" type="line"/>
      <point x="239" y="298" type="line"/>
      <point x="239" y="299" type="line" smooth="yes"/>
      <point x="239" y="357"/>
      <point x="182" y="577"/>
      <point x="81" y="705" type="curve"/>
      <point x="171" y="728" type="line"/>
      <point x="162" y="675"/>
      <point x="125" y="114"/>
      <point x="124" y="-2" type="curve"/>
    </contour>
  </outline>
</glyph>
<glyph name="N" format="1">
  <advance width="482"/>
  <unicode hex="004E"/>
  <outline>
    <contour>
      <point x="129" y="756" type="line"/>
      <point x="138" y="646"/>
      <point x="143" y="106"/>
      <point x="135" y="3" type="curve"/>
      <point x="35" y="9" type="line"/>
      <point x="41" y="110"/>
      <point x="36" y="640"/>
      <point x="29" y="748" type="curve"/>
    </contour>
    <contour>
      <point x="142" y="767" type="line"/>
      <point x="175" y="711"/>
      <point x="427" y="64"/>
      <point x="426" y="1" type="curve"/>
      <point x="324" y="3" type="line"/>
      <point x="325" y="62"/>
      <point x="85" y="663"/>
      <point x="54" y="715" type="curve"/>
    </contour>
    <contour>
      <point x="435" y="759" type="line"/>
      <point x="447" y="708"/>
      <point x="452" y="133"/>
      <point x="432" y="9" type="curve"/>
      <point x="332" y="25" type="line"/>
      <point x="352" y="143"/>
      <point x="347" y="688"/>
      <point x="337" y="737" type="curve"/>
    </contour>
  </outline>
</glyph>
<glyph name="O" format="1">
  <advance width="582.0"/>
  <unicode hex="004F"/>
  <outline>
    <contour>
      <point x="299" y="696" type="curve"/>
      <point x="301" y="696" type="line"/>
      <point x="198" y="694"/>
      <point x="120" y="557"/>
      <point x="129" y="366" type="curve" smooth="yes"/>
      <point x="137" y="182"/>
      <point x="233" y="40"/>
      <point x="302" y="44" type="curve" smooth="yes"/>
      <point x="371" y="47"/>
      <point x="473" y="156"/>
      <point x="460" y="354" type="curve" smooth="yes"/>
      <point x="446" y="553"/>
      <point x="400" y="694"/>
    </contour>
    <contour>
      <point x="301" y="798" type="line" smooth="yes"/>
      <point x="432" y="794"/>
      <point x="538" y="677"/>
      <point x="560" y="362" type="curve" smooth="yes"/>
      <point x="583" y="46"/>
      <point x="399" y="-53"/>
      <point x="308" y="-58" type="curve" smooth="yes"/>
      <point x="217" y="-62"/>
      <point x="41" y="58"/>
      <point x="27" y="362" type="curve" smooth="yes"/>
      <point x="14" y="659"/>
      <point x="164" y="794"/>
      <point x="299" y="798" type="curve" smooth="yes"/>
      <point x="300" y="798" type="line"/>
      <point x="300" y="798" type="line"/>
    </contour>
  </outline>
</glyph>
<glyph name="P" format="1">
  <advance width="577"/>
  <unicode hex="0050"/>
  <outline>
    <contour>
      <point x="21" y="-2" type="line"/>
      <point x="15" y="156"/>
      <point x="34" y="664"/>
      <point x="35" y="742" type="curve" smooth="yes"/>
      <point x="35" y="743" type="line"/>
      <point x="89" y="792" type="line"/>
      <point x="90" y="790" type="line" smooth="yes"/>
      <point x="231" y="779"/>
      <point x="566" y="801"/>
      <point x="555" y="533" type="curve" smooth="yes"/>
      <point x="545" y="299"/>
      <point x="333" y="277"/>
      <point x="150" y="321" type="curve"/>
      <point x="174" y="419" type="line"/>
      <point x="277" y="395"/>
      <point x="447" y="372"/>
      <point x="453" y="538" type="curve" smooth="yes"/>
      <point x="462" y="750"/>
      <point x="163" y="684"/>
      <point x="82" y="691" type="curve"/>
      <point x="137" y="740" type="line"/>
      <point x="136" y="664"/>
      <point x="117" y="158"/>
      <point x="123" y="2" type="curve"/>
    </contour>
  </outline>
</glyph>
<glyph name="Q" format="1">
  <advance width="594"/>
  <unicode hex="0051"/>
  <outline>
    <contour>
      <point x="248" y="164" type="line"/>
      <point x="508" y="205"/>
      <point x="565" y="73"/>
      <point x="565" y="-40" type="curve"/>
      <point x="464" y="-38" type="line"/>
      <point x="464" y="35"/>
      <point x="397" y="87"/>
      <point x="265" y="66" type="curve"/>
    </contour>
    <contour>
      <point x="302" y="698" type="curve"/>
      <point x="191" y="705"/>
      <point x="118" y="557"/>
      <point x="120" y="388" type="curve" smooth="yes"/>
      <point x="121" y="228"/>
      <point x="142" y="47"/>
      <point x="282" y="50" type="curve" smooth="yes"/>
      <point x="415" y="52"/>
      <point x="449" y="225"/>
      <point x="447" y="360" type="curve" smooth="yes"/>
      <point x="446" y="487"/>
      <point x="430" y="684"/>
    </contour>
    <contour>
      <point x="477.0" y="799.0"/>
      <point x="546" y="559"/>
      <point x="549" y="362" type="curve" smooth="yes"/>
      <point x="551" y="147"/>
      <point x="461" y="-48"/>
      <point x="284" y="-52" type="curve" smooth="yes"/>
      <point x="102" y="-55"/>
      <point x="21" y="124"/>
      <point x="18" y="388" type="curve" smooth="yes"/>
      <point x="16" y="643"/>
      <point x="164.910742739" y="799.0"/>
      <point x="306" y="799" type="curve"/>
    </contour>
  </outline>
</glyph>
<glyph name="R" format="1">
  <advance width="533"/>
  <unicode hex="0052"/>
  <outline>
    <contour>
      <point x="20" y="2" type="line"/>
      <point x="19" y="119"/>
      <point x="39" y="669"/>
      <point x="35" y="744" type="curve" smooth="yes"/>
      <point x="35" y="745" type="line"/>
      <point x="76" y="797" type="line"/>
      <point x="77" y="797" type="line" smooth="yes"/>
      <point x="215" y="820"/>
      <point x="514" y="802"/>
      <point x="514" y="536" type="curve" smooth="yes"/>
      <point x="514" y="244"/>
      <point x="250" y="291"/>
      <point x="168" y="330" type="curve"/>
      <point x="238" y="392" type="line"/>
      <point x="286" y="252"/>
      <point x="431" y="92"/>
      <point x="525" y="47" type="curve"/>
      <point x="481" y="-45" type="line"/>
      <point x="371" y="8"/>
      <point x="198" y="194"/>
      <point x="142" y="360" type="curve" smooth="yes"/>
      <point x="142" y="361" type="line"/>
      <point x="211" y="422" type="line"/>
      <point x="212" y="422" type="line" smooth="yes"/>
      <point x="258" y="399"/>
      <point x="412" y="364"/>
      <point x="412" y="536" type="curve" smooth="yes"/>
      <point x="412" y="734"/>
      <point x="179" y="712"/>
      <point x="95" y="697" type="curve"/>
      <point x="137" y="750" type="line"/>
      <point x="141" y="673"/>
      <point x="121" y="121"/>
      <point x="122" y="2" type="curve"/>
    </contour>
  </outline>
</glyph>
<glyph name="T" format="1">
  <advance width="500"/>
  <unicode hex="0054"/>
  <outline>
    <contour>
      <point x="20" y="770" type="line"/>
      <point x="81" y="777"/>
      <point x="437" y="768"/>
      <point x="485" y="761" type="curve"/>
      <point x="471" y="661" type="line"/>
      <point x="425" y="668"/>
      <point x="89" y="677"/>
      <point x="32" y="670" type="curve"/>
    </contour>
    <contour>
      <point x="317" y="696" type="line"/>
      <point x="314" y="607"/>
      <point x="283" y="67"/>
      <point x="300" y="18" type="curve"/>
      <point x="204" y="-14" type="line"/>
      <point x="187" y="37"/>
      <point x="212" y="605"/>
      <point x="215" y="700" type="curve"/>
    </contour>
  </outline>
</glyph>
<glyph name="U" format="1">
  <advance width="580.0"/>
  <unicode hex="0055"/>
  <outline>
    <contour>
      <point x="137" y="741" type="line"/>
      <point x="106" y="431"/>
      <point x="60" y="49"/>
      <point x="289" y="48" type="curve" smooth="yes"/>
      <point x="530" y="47"/>
      <point x="457" y="437"/>
      <point x="439" y="734" type="curve"/>
      <point x="541" y="740" type="line"/>
      <point x="569" y="239"/>
      <point x="566" y="-55"/>
      <point x="289" y="-54" type="curve" smooth="yes"/>
      <point x="26" y="-53"/>
      <point x="-14" y="239"/>
      <point x="37" y="751" type="curve"/>
    </contour>
  </outline>
</glyph>
<glyph name="V" format="1">
  <advance width="500"/>
  <unicode hex="0056"/>
  <outline>
    <contour>
      <point x="118" y="722" type="line"/>
      <point x="157" y="585"/>
      <point x="310" y="94"/>
      <point x="314" y="3" type="curve"/>
      <point x="216" y="20" type="line"/>
      <point x="278" y="172"/>
      <point x="398" y="607"/>
      <point x="383" y="738" type="curve"/>
      <point x="483" y="750" type="line"/>
      <point x="500" y="609"/>
      <point x="376" y="144"/>
      <point x="310" y="-18" type="curve" smooth="yes"/>
      <point x="309" y="-19" type="line"/>
      <point x="212" y="-2" type="line"/>
      <point x="212" y="-1" type="line" smooth="yes"/>
      <point x="208" y="86"/>
      <point x="59" y="561"/>
      <point x="20" y="694" type="curve"/>
    </contour>
  </outline>
</glyph>
<glyph name="W" format="1">
  <advance width="654"/>
  <unicode hex="0057"/>
  <outline>
    <contour>
      <point x="107" y="754" type="line"/>
      <point x="137" y="666"/>
      <point x="235" y="69"/>
      <point x="240" y="8" type="curve"/>
      <point x="138" y="2" type="line"/>
      <point x="135" y="61"/>
      <point x="39" y="636"/>
      <point x="11" y="722" type="curve"/>
    </contour>
    <contour>
      <point x="390" y="535" type="line"/>
      <point x="354" y="415"/>
      <point x="236" y="20"/>
      <point x="220" y="3" type="curve"/>
      <point x="146" y="73" type="line"/>
      <point x="160" y="88"/>
      <point x="260" y="455"/>
      <point x="294" y="565" type="curve"/>
    </contour>
    <contour>
      <point x="311" y="756" type="line"/>
      <point x="388" y="586"/>
      <point x="545" y="20"/>
      <point x="543" y="-1" type="curve" smooth="yes"/>
      <point x="543" y="-2" type="line"/>
      <point x="442" y="7" type="line"/>
      <point x="443" y="8" type="line" smooth="yes"/>
      <point x="446" y="44"/>
      <point x="517" y="565"/>
      <point x="532" y="746" type="curve"/>
      <point x="632" y="738" type="line"/>
      <point x="617" y="557"/>
      <point x="546" y="36"/>
      <point x="543" y="0" type="curve"/>
      <point x="443" y="9" type="line"/>
      <point x="445" y="28"/>
      <point x="290" y="556"/>
      <point x="219" y="714" type="curve"/>
    </contour>
  </outline>
</glyph>
<glyph name="X" format="1">
  <advance width="500"/>
  <unicode hex="0058"/>
  <outline>
    <contour>
      <point x="85" y="752" type="line"/>
      <point x="168" y="663"/>
      <point x="397" y="201"/>
      <point x="486" y="34" type="curve"/>
      <point x="395" y="-13" type="line"/>
      <point x="310" y="150"/>
      <point x="89" y="598"/>
      <point x="10" y="685" type="curve"/>
    </contour>
    <contour>
      <point x="476" y="710" type="line"/>
      <point x="404" y="586"/>
      <point x="152" y="97"/>
      <point x="131" y="45" type="curve"/>
      <point x="35" y="83" type="line"/>
      <point x="58" y="135"/>
      <point x="314" y="632"/>
      <point x="386" y="758" type="curve"/>
    </contour>
  </outline>
</glyph>
<glyph name="Y" format="1">
  <advance width="500"/>
  <unicode hex="0059"/>
  <outline>
    <contour>
      <point x="196" y="736" type="line"/>
      <point x="156" y="574"/>
      <point x="188" y="457"/>
      <point x="290" y="413" type="curve"/>
      <point x="248" y="321" type="line"/>
      <point x="118" y="377"/>
      <point x="58" y="517"/>
      <point x="94" y="728" type="curve"/>
    </contour>
    <contour>
      <point x="488" y="721" type="line"/>
      <point x="442" y="500"/>
      <point x="232" y="47"/>
      <point x="128" y="-27" type="curve"/>
      <point x="70" y="55" type="line"/>
      <point x="167" y="122"/>
      <point x="348" y="532"/>
      <point x="390" y="745" type="curve"/>
    </contour>
  </outline>
</glyph>
<glyph name="Z" format="1">
  <advance width="541"/>
  <unicode hex="005A"/>
  <outline>
    <contour>
      <point x="56" y="762" type="line"/>
      <point x="152" y="776"/>
      <point x="461" y="767"/>
      <point x="489" y="766" type="curve" smooth="yes"/>
      <point x="490" y="766" type="line"/>
      <point x="526" y="683" type="line"/>
      <point x="526" y="684" type="line" smooth="yes"/>
      <point x="437" y="578"/>
      <point x="115" y="52"/>
      <point x="105" y="14" type="curve"/>
      <point x="46" y="76" type="line"/>
      <point x="194" y="105"/>
      <point x="484" y="88"/>
      <point x="521" y="73" type="curve"/>
      <point x="483" y="-21" type="line"/>
      <point x="450" y="-8"/>
      <point x="196" y="3"/>
      <point x="66" y="-24" type="curve" smooth="yes"/>
      <point x="65" y="-24" type="line"/>
      <point x="7" y="38" type="line"/>
      <point x="7" y="39" type="line" smooth="yes"/>
      <point x="17" y="79"/>
      <point x="355" y="635"/>
      <point x="448" y="747" type="curve"/>
      <point x="485" y="664" type="line"/>
      <point x="459" y="665"/>
      <point x="162" y="676"/>
      <point x="72" y="662" type="curve"/>
    </contour>
  </outline>
</glyph>
<glyph name="a" format="1">
  <advance width="562"/>
  <unicode hex="0061"/>
  <outline>
    <contour>
      <point x="88" y="540" type="line"/>
      <point x="138" y="597"/>
      <point x="193" y="641"/>
      <point x="273" y="649" type="curve" smooth="yes"/>
      <point x="352" y="658"/>
      <point x="532" y="612"/>
      <point x="531" y="345" type="curve" smooth="yes"/>
      <point x="530" y="138"/>
      <point x="525" y="22"/>
      <point x="525" y="-1" type="curve"/>
      <point x="423" y="-1" type="line"/>
      <point x="423" y="22"/>
      <point x="428" y="138"/>
      <point x="429" y="345" type="curve" smooth="yes"/>
      <point x="430" y="492"/>
      <point x="336" y="554"/>
      <point x="283" y="549" type="curve" smooth="yes"/>
      <point x="231" y="543"/>
      <point x="196" y="511"/>
      <point x="164" y="474" type="curve"/>
    </contour>
    <contour>
      <point x="484" y="51" type="line"/>
      <point x="386" y="-4"/>
      <point x="161" y="-105"/>
      <point x="68" y="33" type="curve" smooth="yes"/>
      <point x="-35" y="187"/>
      <point x="61" y="323"/>
      <point x="258" y="318" type="curve" smooth="yes"/>
      <point x="315" y="316"/>
      <point x="372" y="291"/>
      <point x="409" y="245" type="curve"/>
      <point x="329" y="183" type="line"/>
      <point x="312" y="205"/>
      <point x="284" y="216"/>
      <point x="257" y="216" type="curve" smooth="yes"/>
      <point x="184" y="219"/>
      <point x="96" y="173"/>
      <point x="153" y="89" type="curve" smooth="yes"/>
      <point x="220" y="-11"/>
      <point x="382" y="110"/>
      <point x="434" y="139" type="curve"/>
    </contour>
  </outline>
</glyph>
<glyph name="b" format="1">
  <advance width="516"/>
  <unicode hex="0062"/>
  <outline>
    <contour>
      <point x="130" y="753" type="line"/>
      <point x="137" y="668"/>
      <point x="137" y="146"/>
      <point x="138" y="55" type="curve"/>
      <point x="89" y="105" type="line"/>
      <point x="197" y="100"/>
      <point x="383" y="104"/>
      <point x="390" y="320" type="curve" smooth="yes"/>
      <point x="394" y="440"/>
      <point x="320" y="519"/>
      <point x="107" y="513" type="curve"/>
      <point x="101" y="615" type="line"/>
      <point x="390" y="625"/>
      <point x="495" y="512"/>
      <point x="492" y="318" type="curve" smooth="yes"/>
      <point x="488" y="28"/>
      <point x="237" y="-4"/>
      <point x="85" y="3" type="curve" smooth="yes"/>
      <point x="84" y="3" type="line"/>
      <point x="36" y="52" type="line"/>
      <point x="36" y="53" type="line" smooth="yes"/>
      <point x="35" y="144"/>
      <point x="35" y="662"/>
      <point x="30" y="745" type="curve"/>
    </contour>
  </outline>
</glyph>
<glyph name="c" format="1">
  <advance width="565"/>
  <unicode hex="0063"/>
  <outline>
    <contour>
      <point x="466" y="445" type="line"/>
      <point x="428" y="495"/>
      <point x="349" y="540"/>
      <point x="301" y="545" type="curve" smooth="yes"/>
      <point x="252" y="549"/>
      <point x="127" y="494"/>
      <point x="124" y="299" type="curve" smooth="yes"/>
      <point x="120" y="93"/>
      <point x="272" y="60"/>
      <point x="308" y="57" type="curve" smooth="yes"/>
      <point x="339" y="55"/>
      <point x="412" y="63"/>
      <point x="445" y="147" type="curve"/>
      <point x="539" y="111" type="line"/>
      <point x="482" y="-37"/>
      <point x="355" y="-47"/>
      <point x="300" y="-43" type="curve" smooth="yes"/>
      <point x="250" y="-40"/>
      <point x="19" y="-10"/>
      <point x="23" y="300" type="curve" smooth="yes"/>
      <point x="28" y="621"/>
      <point x="243" y="650"/>
      <point x="310" y="644" type="curve" smooth="yes"/>
      <point x="378" y="639"/>
      <point x="492" y="577"/>
      <point x="546" y="507" type="curve"/>
    </contour>
  </outline>
</glyph>
<glyph name="d" format="1">
  <advance width="500"/>
  <unicode hex="0064"/>
  <outline>
    <contour>
      <point x="491" y="737" type="line"/>
      <point x="479" y="612"/>
      <point x="477" y="57"/>
      <point x="475" y="4" type="curve" smooth="yes"/>
      <point x="475" y="3" type="line"/>
      <point x="430" y="-44" type="line"/>
      <point x="429" y="-44" type="line" smooth="yes"/>
      <point x="221" y="-65"/>
      <point x="75" y="-22"/>
      <point x="39" y="160" type="curve" smooth="yes"/>
      <point x="-23" y="477"/>
      <point x="257" y="592"/>
      <point x="434" y="485" type="curve"/>
      <point x="420" y="385" type="line"/>
      <point x="275" y="488"/>
      <point x="101" y="375"/>
      <point x="139" y="180" type="curve" smooth="yes"/>
      <point x="165" y="48"/>
      <point x="287" y="43"/>
      <point x="419" y="56" type="curve"/>
      <point x="373" y="8" type="line"/>
      <point x="375" y="61"/>
      <point x="379" y="620"/>
      <point x="391" y="747" type="curve"/>
    </contour>
  </outline>
</glyph>
<glyph name="e" format="1">
  <advance width="530"/>
  <unicode hex="0065"/>
  <outline>
    <contour>
      <point x="120" y="373" type="line"/>
      <point x="251" y="365"/>
      <point x="421" y="376"/>
      <point x="456" y="376" type="curve"/>
      <point x="406" y="331" type="line"/>
      <point x="413" y="397"/>
      <point x="390" y="546"/>
      <point x="291" y="540" type="curve" smooth="yes"/>
      <point x="191" y="535"/>
      <point x="141" y="443"/>
      <point x="126" y="316" type="curve" smooth="yes"/>
      <point x="116" y="211"/>
      <point x="103" y="60"/>
      <point x="259" y="65" type="curve" smooth="yes"/>
      <point x="353" y="67"/>
      <point x="392" y="120"/>
      <point x="396" y="161" type="curve"/>
      <point x="496" y="151" type="line"/>
      <point x="490" y="82"/>
      <point x="445" y="-31"/>
      <point x="261" y="-37" type="curve" smooth="yes"/>
      <point x="41" y="-42"/>
      <point x="8" y="135"/>
      <point x="26" y="328" type="curve" smooth="yes"/>
      <point x="49" y="525"/>
      <point x="143" y="633"/>
      <point x="285" y="642" type="curve" smooth="yes"/>
      <point x="436" y="650"/>
      <point x="521" y="449"/>
      <point x="506" y="319" type="curve" smooth="yes"/>
      <point x="506" y="318" type="line"/>
      <point x="457" y="274" type="line"/>
      <point x="456" y="274" type="line" smooth="yes"/>
      <point x="423" y="274"/>
      <point x="239" y="270"/>
      <point x="110" y="280" type="curve"/>
    </contour>
  </outline>
</glyph>
<glyph name="f" format="1">
  <advance width="465"/>
  <unicode hex="0066"/>
  <outline>
    <contour>
      <point x="134" y="1" type="line"/>
      <point x="130" y="113"/>
      <point x="106" y="351"/>
      <point x="109" y="530" type="curve" smooth="yes"/>
      <point x="113" y="762"/>
      <point x="204" y="785"/>
      <point x="253" y="799" type="curve" smooth="yes"/>
      <point x="311" y="815"/>
      <point x="445" y="773"/>
      <point x="444" y="642" type="curve"/>
      <point x="342" y="644" type="line"/>
      <point x="343" y="685"/>
      <point x="301" y="707"/>
      <point x="279" y="701" type="curve" smooth="yes"/>
      <point x="248" y="693"/>
      <point x="213" y="652"/>
      <point x="211" y="528" type="curve" smooth="yes"/>
      <point x="208" y="351"/>
      <point x="232" y="115"/>
      <point x="236" y="5" type="curve"/>
    </contour>
    <contour>
      <point x="21" y="385" type="line"/>
      <point x="78" y="401"/>
      <point x="295" y="414"/>
      <point x="342" y="412" type="curve"/>
      <point x="338" y="310" type="line"/>
      <point x="295" y="312"/>
      <point x="99" y="302"/>
      <point x="49" y="287" type="curve"/>
    </contour>
  </outline>
</glyph>
<glyph name="g" format="1">
  <advance width="500"/>
  <unicode hex="0067"/>
  <outline>
    <contour>
      <point x="467" y="254" type="line"/>
      <point x="197" y="-30"/>
      <point x="3" y="244"/>
      <point x="28" y="389" type="curve" smooth="yes"/>
      <point x="57" y="551"/>
      <point x="248" y="666"/>
      <point x="441" y="643" type="curve" smooth="yes"/>
      <point x="442" y="643" type="line"/>
      <point x="486" y="595" type="line"/>
      <point x="486" y="594" type="line" smooth="yes"/>
      <point x="488" y="448"/>
      <point x="486" y="82"/>
      <point x="473" y="-33" type="curve" smooth="yes"/>
      <point x="464" y="-110"/>
      <point x="428" y="-276"/>
      <point x="229" y="-271" type="curve" smooth="yes"/>
      <point x="23" y="-265"/>
      <point x="2" y="-105"/>
      <point x="128" y="15" type="curve"/>
      <point x="198" y="-59" type="line"/>
      <point x="156" y="-99"/>
      <point x="145" y="-167"/>
      <point x="231" y="-169" type="curve" smooth="yes"/>
      <point x="354" y="-172"/>
      <point x="368" y="-66"/>
      <point x="373" y="-21" type="curve" smooth="yes"/>
      <point x="386" y="92"/>
      <point x="386" y="450"/>
      <point x="384" y="592" type="curve"/>
      <point x="429" y="543" type="line"/>
      <point x="296" y="558"/>
      <point x="149" y="491"/>
      <point x="128" y="371" type="curve" smooth="yes"/>
      <point x="113" y="288"/>
      <point x="257" y="142"/>
      <point x="407" y="336" type="curve"/>
    </contour>
  </outline>
</glyph>
<glyph name="h" format="1">
  <advance width="500"/>
  <unicode hex="0068"/>
  <outline>
    <contour>
      <point x="118" y="759" type="line"/>
      <point x="146" y="622"/>
      <point x="140" y="79"/>
      <point x="139" y="-2" type="curve"/>
      <point x="37" y="0" type="line"/>
      <point x="38" y="77"/>
      <point x="46" y="606"/>
      <point x="18" y="739" type="curve"/>
    </contour>
    <contour>
      <point x="38" y="466" type="line"/>
      <point x="88" y="560"/>
      <point x="163" y="642"/>
      <point x="281" y="647" type="curve" smooth="yes"/>
      <point x="416" y="652"/>
      <point x="489" y="493"/>
      <point x="488" y="291" type="curve" smooth="yes"/>
      <point x="487" y="171"/>
      <point x="459" y="27"/>
      <point x="442" y="-22" type="curve"/>
      <point x="346" y="10" type="line"/>
      <point x="361" y="55"/>
      <point x="385" y="185"/>
      <point x="386" y="291" type="curve" smooth="yes"/>
      <point x="387" y="387"/>
      <point x="382" y="550"/>
      <point x="285" y="545" type="curve" smooth="yes"/>
      <point x="205" y="542"/>
      <point x="160" y="480"/>
      <point x="128" y="418" type="curve"/>
    </contour>
  </outline>
</glyph>
<glyph name="i" format="1">
  <advance width="217"/>
  <unicode hex="0069"/>
  <outline>
    <contour>
      <point x="169" y="525" type="line"/>
      <point x="187" y="396"/>
      <point x="168" y="35"/>
      <point x="167" y="-1" type="curve"/>
      <point x="65" y="1" type="line"/>
      <point x="66" y="37"/>
      <point x="87" y="386"/>
      <point x="69" y="511" type="curve"/>
    </contour>
    <contour>
      <point x="112" y="554" type="curve" smooth="yes"/>
      <point x="146" y="554"/>
      <point x="171" y="581"/>
      <point x="171" y="613" type="curve" smooth="yes"/>
      <point x="171" y="645"/>
      <point x="146" y="672"/>
      <point x="112" y="672" type="curve" smooth="yes"/>
      <point x="80" y="672"/>
      <point x="53" y="645"/>
      <point x="53" y="613" type="curve"/>
      <point x="53" y="581"/>
      <point x="80" y="554"/>
    </contour>
  </outline>
</glyph>
<glyph name="j" format="1">
  <advance width="424"/>
  <unicode hex="006A"/>
  <outline>
    <contour>
      <point x="399" y="525" type="line"/>
      <point x="417" y="396"/>
      <point x="398" y="35"/>
      <point x="397" y="-1" type="curve" smooth="yes"/>
      <point x="395" y="-53"/>
      <point x="367" y="-199"/>
      <point x="231" y="-201" type="curve" smooth="yes"/>
      <point x="59" y="-202"/>
      <point x="6" y="-90"/>
      <point x="43" y="7" type="curve"/>
      <point x="137" y="-29" type="line"/>
      <point x="120" y="-76"/>
      <point x="185" y="-100"/>
      <point x="231" y="-99" type="curve" smooth="yes"/>
      <point x="299" y="-99"/>
      <point x="295" y="-19"/>
      <point x="295" y="1" type="curve" smooth="yes"/>
      <point x="296" y="37"/>
      <point x="317" y="386"/>
      <point x="299" y="511" type="curve"/>
    </contour>
    <contour>
      <point x="342" y="554" type="curve" smooth="yes"/>
      <point x="376" y="554"/>
      <point x="401" y="581"/>
      <point x="401" y="613" type="curve" smooth="yes"/>
      <point x="401" y="645"/>
      <point x="376" y="672"/>
      <point x="342" y="672" type="curve" smooth="yes"/>
      <point x="310" y="672"/>
      <point x="283" y="645"/>
      <point x="283" y="613" type="curve"/>
      <point x="283" y="581"/>
      <point x="310" y="554"/>
    </contour>
  </outline>
</glyph>
<glyph name="k" format="1">
  <advance width="489"/>
  <unicode hex="006B"/>
  <outline>
    <contour>
      <point x="143" y="745" type="line"/>
      <point x="152" y="609"/>
      <point x="137" y="56"/>
      <point x="139" y="3" type="curve"/>
      <point x="37" y="-1" type="line"/>
      <point x="35" y="52"/>
      <point x="50" y="603"/>
      <point x="41" y="739" type="curve"/>
    </contour>
    <contour>
      <point x="441" y="573" type="line"/>
      <point x="400" y="439"/>
      <point x="156" y="255"/>
      <point x="109" y="248" type="curve"/>
      <point x="95" y="348" type="line"/>
      <point x="130" y="353"/>
      <point x="314" y="501"/>
      <point x="345" y="603" type="curve"/>
    </contour>
    <contour>
      <point x="285" y="387" type="line"/>
      <point x="308" y="283"/>
      <point x="384" y="86"/>
      <point x="464" y="41" type="curve"/>
      <point x="414" y="-47" type="line"/>
      <point x="318" y="8"/>
      <point x="214" y="237"/>
      <point x="187" y="365" type="curve"/>
    </contour>
  </outline>
</glyph>
<glyph name="l" format="1">
  <advance width="176"/>
  <unicode hex="006C"/>
  <outline>
    <contour>
      <point x="150" y="746" type="line"/>
      <point x="129" y="524"/>
      <point x="154" y="84"/>
      <point x="154" y="4" type="curve"/>
      <point x="52" y="4" type="line"/>
      <point x="52" y="86"/>
      <point x="27" y="530"/>
      <point x="50" y="756" type="curve"/>
    </contour>
  </outline>
</glyph>
<glyph name="m" format="1">
  <advance width="685"/>
  <unicode hex="006D"/>
  <outline>
    <contour>
      <point x="116" y="609" type="line"/>
      <point x="135" y="539"/>
      <point x="128" y="51"/>
      <point x="127" y="-4" type="curve"/>
      <point x="25" y="-2" type="line"/>
      <point x="26" y="51"/>
      <point x="37" y="515"/>
      <point x="18" y="581" type="curve"/>
    </contour>
    <contour>
      <point x="32" y="423" type="line"/>
      <point x="57" y="540"/>
      <point x="120" y="635"/>
      <point x="238" y="615" type="curve" smooth="yes"/>
      <point x="386" y="589"/>
      <point x="366" y="344"/>
      <point x="376" y="183" type="curve"/>
      <point x="276" y="194" type="line"/>
      <point x="372" y="531"/>
      <point x="371" y="585"/>
      <point x="491" y="579" type="curve" smooth="yes"/>
      <point x="692" y="566"/>
      <point x="697" y="368"/>
      <point x="579" y="-20" type="curve"/>
      <point x="483" y="10" type="line"/>
      <point x="507" y="90"/>
      <point x="650" y="468"/>
      <point x="485" y="477" type="curve" smooth="yes"/>
      <point x="393" y="483"/>
      <point x="420" y="331"/>
      <point x="374" y="166" type="curve" smooth="yes"/>
      <point x="373" y="165" type="line"/>
      <point x="275" y="176" type="line"/>
      <point x="274" y="177" type="line" smooth="yes"/>
      <point x="270" y="262"/>
      <point x="336" y="495"/>
      <point x="220" y="515" type="curve" smooth="yes"/>
      <point x="154" y="527"/>
      <point x="141" y="450"/>
      <point x="132" y="403" type="curve"/>
    </contour>
  </outline>
</glyph>
<glyph name="n" format="1">
  <advance width="526"/>
  <unicode hex="006E"/>
  <outline>
    <contour>
      <point x="115" y="609" type="line"/>
      <point x="143" y="490"/>
      <point x="153" y="86"/>
      <point x="150" y="-2" type="curve"/>
      <point x="48" y="2" type="line"/>
      <point x="51" y="86"/>
      <point x="43" y="472"/>
      <point x="17" y="587" type="curve"/>
    </contour>
    <contour>
      <point x="39" y="411" type="line"/>
      <point x="70" y="541"/>
      <point x="118" y="634"/>
      <point x="293" y="627" type="curve" smooth="yes"/>
      <point x="513" y="617"/>
      <point x="516" y="355"/>
      <point x="452" y="-24" type="curve"/>
      <point x="352" y="-8" type="line"/>
      <point x="382" y="169"/>
      <point x="473" y="517"/>
      <point x="289" y="525" type="curve" smooth="yes"/>
      <point x="178" y="530"/>
      <point x="156" y="465"/>
      <point x="137" y="387" type="curve"/>
    </contour>
  </outline>
</glyph>
<glyph name="o" format="1">
  <advance width="529"/>
  <unicode hex="006F"/>
  <outline>
    <contour>
      <point x="287" y="519" type="curve" smooth="yes"/>
      <point x="286" y="519" type="line" smooth="yes"/>
      <point x="204" y="527"/>
      <point x="120" y="427"/>
      <point x="126" y="298" type="curve" smooth="yes"/>
      <point x="131" y="154"/>
      <point x="212" y="55"/>
      <point x="293" y="55" type="curve" smooth="yes"/>
      <point x="387" y="55"/>
      <point x="415" y="182"/>
      <point x="413" y="281" type="curve" smooth="yes"/>
      <point x="412" y="373"/>
      <point x="396" y="509"/>
    </contour>
    <contour>
      <point x="295" y="619" type="line"/>
      <point x="450" y="607"/>
      <point x="512" y="439"/>
      <point x="515" y="283" type="curve" smooth="yes"/>
      <point x="517" y="100"/>
      <point x="429" y="-47"/>
      <point x="293" y="-47" type="curve" smooth="yes"/>
      <point x="178" y="-47"/>
      <point x="33" y="62"/>
      <point x="24" y="294" type="curve" smooth="yes"/>
      <point x="16" y="517"/>
      <point x="176" y="631"/>
      <point x="296" y="619" type="curve"/>
    </contour>
  </outline>
</glyph>
<glyph name="p" format="1">
  <advance width="500"/>
  <unicode hex="0070"/>
  <outline>
    <contour>
      <point x="126" y="610" type="line"/>
      <point x="148" y="478"/>
      <point x="188" y="45"/>
      <point x="176" y="-135" type="curve"/>
      <point x="74" y="-129" type="line"/>
      <point x="86" y="47"/>
      <point x="48" y="466"/>
      <point x="26" y="592" type="curve"/>
    </contour>
    <contour>
      <point x="54" y="468" type="line"/>
      <point x="90" y="551"/>
      <point x="163" y="610"/>
      <point x="261" y="617" type="curve" smooth="yes"/>
      <point x="398" y="628"/>
      <point x="491" y="520"/>
      <point x="489" y="319" type="curve" smooth="yes"/>
      <point x="485" y="50"/>
      <point x="253" y="6"/>
      <point x="156" y="-6" type="curve"/>
      <point x="144" y="94" type="line"/>
      <point x="211" y="102"/>
      <point x="385" y="124"/>
      <point x="387" y="321" type="curve" smooth="yes"/>
      <point x="389" y="422"/>
      <point x="360" y="524"/>
      <point x="269" y="517" type="curve" smooth="yes"/>
      <point x="211" y="512"/>
      <point x="168" y="477"/>
      <point x="146" y="428" type="curve"/>
    </contour>
  </outline>
</glyph>
<glyph name="q" format="1">
  <advance width="500"/>
  <unicode hex="0071"/>
  <outline>
    <contour>
      <point x="354" y="-270" type="line"/>
      <point x="252" y="-72"/>
      <point x="359" y="475"/>
      <point x="382" y="610" type="curve"/>
      <point x="482" y="592" type="line"/>
      <point x="461" y="469"/>
      <point x="350" y="-40"/>
      <point x="444" y="-224" type="curve"/>
    </contour>
    <contour>
      <point x="352" y="-6" type="line"/>
      <point x="249" y="6"/>
      <point x="21" y="-29"/>
      <point x="17" y="241" type="curve" smooth="yes"/>
      <point x="15" y="433"/>
      <point x="87" y="611"/>
      <point x="241" y="618" type="curve" smooth="yes"/>
      <point x="339" y="623"/>
      <point x="417" y="554"/>
      <point x="454" y="468" type="curve"/>
      <point x="362" y="428" type="line"/>
      <point x="341" y="474"/>
      <point x="303" y="519"/>
      <point x="245" y="516" type="curve" smooth="yes"/>
      <point x="133" y="511"/>
      <point x="117" y="353"/>
      <point x="119" y="243" type="curve" smooth="yes"/>
      <point x="121" y="47"/>
      <point x="303" y="102"/>
      <point x="364" y="94" type="curve"/>
    </contour>
  </outline>
</glyph>
<glyph name="r" format="1">
  <advance width="500"/>
  <unicode hex="0072"/>
  <outline>
    <contour>
      <point x="114" y="615" type="line"/>
      <point x="138" y="515"/>
      <point x="149" y="82"/>
      <point x="144" y="1" type="curve"/>
      <point x="42" y="7" type="line"/>
      <point x="47" y="84"/>
      <point x="38" y="497"/>
      <point x="16" y="591" type="curve"/>
    </contour>
    <contour>
      <point x="47" y="448" type="line"/>
      <point x="91" y="538"/>
      <point x="161" y="640"/>
      <point x="269" y="645" type="curve" smooth="yes"/>
      <point x="387" y="650"/>
      <point x="465" y="548"/>
      <point x="490" y="446" type="curve"/>
      <point x="392" y="422" type="line"/>
      <point x="379" y="476"/>
      <point x="343" y="546"/>
      <point x="273" y="543" type="curve" smooth="yes"/>
      <point x="193" y="540"/>
      <point x="145" y="444"/>
      <point x="125" y="384" type="curve"/>
    </contour>
  </outline>
</glyph>
<glyph name="s" format="1">
  <advance width="562"/>
  <unicode hex="0073"/>
  <outline>
    <contour>
      <point x="450" y="422" type="line"/>
      <point x="417" y="479"/>
      <point x="367" y="544"/>
      <point x="289" y="540" type="curve" smooth="yes"/>
      <point x="215" y="537"/>
      <point x="119" y="449"/>
      <point x="126" y="365" type="curve" smooth="yes"/>
      <point x="132" y="298"/>
      <point x="228" y="310"/>
      <point x="275" y="314" type="curve" smooth="yes"/>
      <point x="433" y="329"/>
      <point x="536" y="269"/>
      <point x="548" y="156" type="curve" smooth="yes"/>
      <point x="563" y="15"/>
      <point x="378" y="-50"/>
      <point x="308" y="-55" type="curve" smooth="yes"/>
      <point x="131" y="-68"/>
      <point x="71" y="-1"/>
      <point x="53" y="97" type="curve"/>
      <point x="153" y="115" type="line"/>
      <point x="163" y="57"/>
      <point x="215" y="40"/>
      <point x="300" y="45" type="curve" smooth="yes"/>
      <point x="332" y="48"/>
      <point x="457" y="59"/>
      <point x="448" y="144" type="curve" smooth="yes"/>
      <point x="440" y="213"/>
      <point x="357" y="221"/>
      <point x="285" y="214" type="curve" smooth="yes"/>
      <point x="160" y="202"/>
      <point x="36" y="242"/>
      <point x="26" y="355" type="curve" smooth="yes"/>
      <point x="13" y="489"/>
      <point x="165" y="637"/>
      <point x="285" y="642" type="curve" smooth="yes"/>
      <point x="401" y="646"/>
      <point x="487" y="563"/>
      <point x="538" y="472" type="curve"/>
    </contour>
  </outline>
</glyph>
<glyph name="t" format="1">
  <advance width="416"/>
  <unicode hex="0074"/>
  <outline>
    <contour>
      <point x="245" y="762" type="line"/>
      <point x="211" y="501"/>
      <point x="198" y="355"/>
      <point x="197" y="242" type="curve" smooth="yes"/>
      <point x="195" y="66"/>
      <point x="296" y="37"/>
      <point x="377" y="70" type="curve"/>
      <point x="432" y="-3" type="line"/>
      <point x="240" y="-109"/>
      <point x="99" y="12"/>
      <point x="97" y="232" type="curve" smooth="yes"/>
      <point x="96" y="347"/>
      <point x="109" y="497"/>
      <point x="143" y="760" type="curve"/>
    </contour>
    <contour>
      <point x="46" y="680" type="line"/>
      <point x="104" y="668"/>
      <point x="233" y="644"/>
      <point x="331" y="673" type="curve"/>
      <point x="359" y="575" type="line"/>
      <point x="245" y="542"/>
      <point x="94" y="566"/>
      <point x="26" y="580" type="curve"/>
    </contour>
  </outline>
</glyph>
<glyph name="u" format="1">
  <advance width="534"/>
  <unicode hex="0075"/>
  <outline>
    <contour>
      <point x="134" y="592" type="line"/>
      <point x="114" y="376"/>
      <point x="57" y="93"/>
      <point x="223" y="92" type="curve" smooth="yes"/>
      <point x="366" y="91"/>
      <point x="377" y="319"/>
      <point x="371" y="594" type="curve" smooth="yes"/>
      <point x="371" y="595" type="line"/>
      <point x="472" y="605" type="line"/>
      <point x="472" y="604" type="line" smooth="yes"/>
      <point x="515" y="362"/>
      <point x="499" y="37"/>
      <point x="497" y="-2" type="curve"/>
      <point x="395" y="4" type="line"/>
      <point x="397" y="41"/>
      <point x="413" y="354"/>
      <point x="372" y="586" type="curve"/>
      <point x="473" y="596" type="line"/>
      <point x="481" y="129"/>
      <point x="392" y="-11"/>
      <point x="223" y="-10" type="curve" smooth="yes"/>
      <point x="25" y="-9"/>
      <point x="-29" y="127"/>
      <point x="34" y="602" type="curve"/>
    </contour>
  </outline>
</glyph>
<glyph name="v" format="1">
  <advance width="465"/>
  <unicode hex="0076"/>
  <outline>
    <contour>
      <point x="109" y="622" type="line"/>
      <point x="163" y="522"/>
      <point x="284" y="115"/>
      <point x="283" y="2" type="curve"/>
      <point x="183" y="16" type="line"/>
      <point x="238" y="207"/>
      <point x="341" y="468"/>
      <point x="340" y="598" type="curve"/>
      <point x="442" y="598" type="line"/>
      <point x="443" y="462"/>
      <point x="338" y="189"/>
      <point x="281" y="-12" type="curve" smooth="yes"/>
      <point x="280" y="-13" type="line"/>
      <point x="181" y="1" type="line"/>
      <point x="181" y="2" type="line" smooth="yes"/>
      <point x="182" y="107"/>
      <point x="69" y="482"/>
      <point x="19" y="574" type="curve"/>
    </contour>
  </outline>
</glyph>
<glyph name="w" format="1">
  <advance width="663"/>
  <unicode hex="0077"/>
  <outline>
    <contour>
      <point x="180" y="579" type="line"/>
      <point x="139" y="452"/>
      <point x="28" y="75"/>
      <point x="208" y="50" type="curve" smooth="yes"/>
      <point x="340" y="32"/>
      <point x="275" y="324"/>
      <point x="273" y="358" type="curve" smooth="yes"/>
      <point x="272" y="359" type="line"/>
      <point x="373" y="369" type="line"/>
      <point x="373" y="368" type="line" smooth="yes"/>
      <point x="391" y="232"/>
      <point x="378" y="50"/>
      <point x="453" y="52" type="curve" smooth="yes"/>
      <point x="641" y="56"/>
      <point x="528" y="497"/>
      <point x="506" y="584" type="curve"/>
      <point x="604" y="610" type="line"/>
      <point x="660" y="391"/>
      <point x="681" y="-44"/>
      <point x="455" y="-50" type="curve" smooth="yes"/>
      <point x="356" y="-52"/>
      <point x="315" y="28"/>
      <point x="273" y="356" type="curve"/>
      <point x="373" y="366" type="line"/>
      <point x="387" y="178"/>
      <point x="370" y="-74"/>
      <point x="194" y="-50" type="curve" smooth="yes"/>
      <point x="-22" y="-21"/>
      <point x="1" y="356"/>
      <point x="84" y="611" type="curve"/>
    </contour>
  </outline>
</glyph>
<glyph name="x" format="1">
  <advance width="512"/>
  <unicode hex="0078"/>
  <outline>
    <contour>
      <point x="85" y="637" type="line"/>
      <point x="171" y="562"/>
      <point x="496" y="92"/>
      <point x="499" y="9" type="curve"/>
      <point x="397" y="7" type="line"/>
      <point x="396" y="80"/>
      <point x="95" y="494"/>
      <point x="19" y="561" type="curve"/>
    </contour>
    <contour>
      <point x="477" y="532" type="line"/>
      <point x="443" y="423"/>
      <point x="214" y="98"/>
      <point x="110" y="9" type="curve"/>
      <point x="44" y="87" type="line"/>
      <point x="140" y="168"/>
      <point x="349" y="463"/>
      <point x="381" y="562" type="curve"/>
    </contour>
  </outline>
</glyph>
<glyph name="y" format="1">
  <advance width="500"/>
  <unicode hex="0079"/>
  <outline>
    <contour>
      <point x="108" y="588" type="line"/>
      <point x="152" y="456"/>
      <point x="237" y="147"/>
      <point x="339" y="121" type="curve"/>
      <point x="315" y="23" type="line"/>
      <point x="195" y="53"/>
      <point x="68" y="390"/>
      <point x="12" y="556" type="curve"/>
    </contour>
    <contour>
      <point x="483" y="587" type="line"/>
      <point x="443" y="379"/>
      <point x="393" y="-203"/>
      <point x="153" y="-243" type="curve"/>
      <point x="137" y="-143" type="line"/>
      <point x="351" y="-107"/>
      <point x="351" y="441"/>
      <point x="383" y="607" type="curve"/>
    </contour>
  </outline>
</glyph>
<glyph name="z" format="1">
  <advance width="500"/>
  <unicode hex="007A"/>
  <outline>
    <contour>
      <point x="38" y="631" type="line"/>
      <point x="211" y="638"/>
      <point x="457" y="643"/>
      <point x="482" y="624" type="curve" smooth="yes"/>
      <point x="483" y="623" type="line"/>
      <point x="489" y="551" type="line"/>
      <point x="489" y="550" type="line" smooth="yes"/>
      <point x="329" y="371"/>
      <point x="114" y="62"/>
      <point x="109" y="-1" type="curve"/>
      <point x="51" y="53" type="line"/>
      <point x="194" y="75"/>
      <point x="397" y="71"/>
      <point x="482" y="61" type="curve"/>
      <point x="472" y="-39" type="line"/>
      <point x="391" y="-31"/>
      <point x="200" y="-27"/>
      <point x="67" y="-47" type="curve" smooth="yes"/>
      <point x="66" y="-47" type="line"/>
      <point x="8" y="6" type="line"/>
      <point x="9" y="7" type="line" smooth="yes"/>
      <point x="14" y="76"/>
      <point x="237" y="419"/>
      <point x="413" y="618" type="curve"/>
      <point x="420" y="544" type="line"/>
      <point x="399" y="561"/>
      <point x="183" y="536"/>
      <point x="42" y="529" type="curve"/>
    </contour>
  </outline>
</glyph>
<glyph name="Ccedilla" format="1">
  <advance width="389"/>
  <unicode hex="00C7"/>
  <outline>
    <contour>
      <point x="326" y="690" type="line"/>
      <point x="280" y="730"/>
      <point x="211" y="776"/>
      <point x="152" y="735" type="curve" smooth="yes"/>
      <point x="129" y="719"/>
      <point x="113" y="695"/>
      <point x="101" y="670" type="curve" smooth="yes"/>
      <point x="86" y="640"/>
      <point x="76" y="607"/>
      <point x="69" y="574" type="curve" smooth="yes"/>
      <point x="61" y="541"/>
      <point x="56" y="507"/>
      <point x="53" y="473" type="curve" smooth="yes"/>
      <point x="49" y="440"/>
      <point x="49" y="407"/>
      <point x="46" y="375" type="curve" smooth="yes"/>
      <point x="39" y="295"/>
      <point x="29" y="213"/>
      <point x="45" y="133" type="curve" smooth="yes"/>
      <point x="51" y="98"/>
      <point x="64" y="63"/>
      <point x="89" y="37" type="curve" smooth="yes"/>
      <point x="102" y="23"/>
      <point x="118" y="12"/>
      <point x="135" y="4" type="curve" smooth="yes"/>
      <point x="159" y="-7"/>
      <point x="185" y="-14"/>
      <point x="211" y="-16" type="curve" smooth="yes"/>
      <point x="260" y="-18"/>
      <point x="306" y="2"/>
      <point x="341" y="35" type="curve" smooth="yes"/>
      <point x="344" y="37"/>
      <point x="340" y="39"/>
      <point x="338" y="37" type="curve" smooth="yes"/>
      <point x="317" y="18"/>
      <point x="294" y="3"/>
      <point x="267" y="-5" type="curve" smooth="yes"/>
      <point x="242" y="-13"/>
      <point x="215" y="-14"/>
      <point x="190" y="-9" type="curve" smooth="yes"/>
      <point x="147" y="-1"/>
      <point x="105" y="19"/>
      <point x="79" y="56" type="curve" smooth="yes"/>
      <point x="58" y="87"/>
      <point x="49" y="125"/>
      <point x="45" y="162" type="curve" smooth="yes"/>
      <point x="40" y="203"/>
      <point x="41" y="245"/>
      <point x="44" y="286" type="curve" smooth="yes"/>
      <point x="46" y="325"/>
      <point x="50" y="364"/>
      <point x="53" y="402" type="curve" smooth="yes"/>
      <point x="55" y="434"/>
      <point x="56" y="466"/>
      <point x="60" y="498" type="curve" smooth="yes"/>
      <point x="65" y="533"/>
      <point x="71" y="568"/>
      <point x="80" y="601" type="curve" smooth="yes"/>
      <point x="89" y="633"/>
      <point x="100" y="664"/>
      <point x="118" y="691" type="curve" smooth="yes"/>
      <point x="132" y="714"/>
      <point x="151" y="734"/>
      <point x="176" y="743" type="curve" smooth="yes"/>
      <point x="205" y="753"/>
      <point x="236" y="744"/>
      <point x="262" y="731" type="curve" smooth="yes"/>
      <point x="284" y="719"/>
      <point x="303" y="704"/>
      <point x="322" y="687" type="curve" smooth="yes"/>
      <point x="323" y="685"/>
      <point x="328" y="688"/>
      <point x="326" y="690" type="curve"/>
    </contour>
    <contour>
      <point x="200" y="-21" type="curve" smooth="yes"/>
      <point x="199" y="-23"/>
      <point x="196" y="-46"/>
      <point x="196" y="-46" type="curve"/>
      <point x="196" y="-46"/>
      <point x="223" y="-39"/>
      <point x="221" y="-59" type="curve" smooth="yes"/>
      <point x="219" y="-79"/>
      <point x="198" y="-73"/>
      <point x="198" y="-73" type="curve"/>
      <point x="198" y="-73"/>
      <point x="196" y="-76"/>
      <point x="197" y="-77" type="curve" smooth="yes"/>
      <point x="200" y="-80"/>
      <point x="226" y="-81"/>
      <point x="227" y="-59" type="curve" smooth="yes"/>
      <point x="228" y="-37"/>
      <point x="209" y="-41"/>
      <point x="201" y="-41" type="curve"/>
      <point x="201" y="-41"/>
      <point x="201" y="-30"/>
      <point x="205" y="-22" type="curve" smooth="yes"/>
      <point x="206" y="-20"/>
      <point x="201" y="-19"/>
    </contour>
  </outline>
</glyph>
<glyph name="Edieresis" format="1">
  <advance width="357"/>
  <unicode hex="00CB"/>
  <outline>
    <contour>
      <point x="313" y="746" type="line"/>
      <point x="270" y="770"/>
      <point x="219" y="779"/>
      <point x="171" y="764" type="curve" smooth="yes"/>
      <point x="147" y="756"/>
      <point x="126" y="741"/>
      <point x="108" y="724" type="curve" smooth="yes"/>
      <point x="90" y="708"/>
      <point x="78" y="688"/>
      <point x="71" y="666" type="curve" smooth="yes"/>
      <point x="56" y="621"/>
      <point x="62" y="572"/>
      <point x="64" y="526" type="curve" smooth="yes"/>
      <point x="65" y="508"/>
      <point x="66" y="490"/>
      <point x="64" y="472" type="curve" smooth="yes"/>
      <point x="62" y="457"/>
      <point x="60" y="442"/>
      <point x="58" y="427" type="curve" smooth="yes"/>
      <point x="46" y="350"/>
      <point x="30" y="274"/>
      <point x="25" y="196" type="curve" smooth="yes"/>
      <point x="23" y="160"/>
      <point x="23" y="124"/>
      <point x="31" y="89" type="curve" smooth="yes"/>
      <point x="37" y="62"/>
      <point x="49" y="35"/>
      <point x="72" y="18" type="curve" smooth="yes"/>
      <point x="105" y="-8"/>
      <point x="151" y="-6"/>
      <point x="190" y="-3" type="curve" smooth="yes"/>
      <point x="214" y="-1"/>
      <point x="239" y="3"/>
      <point x="263" y="7" type="curve" smooth="yes"/>
      <point x="285" y="10"/>
      <point x="306" y="14"/>
      <point x="328" y="14" type="curve" smooth="yes"/>
      <point x="329" y="14"/>
      <point x="331" y="14"/>
      <point x="332" y="14" type="curve" smooth="yes"/>
      <point x="335" y="14"/>
      <point x="335" y="18"/>
      <point x="332" y="18" type="curve" smooth="yes"/>
      <point x="311" y="18"/>
      <point x="290" y="15"/>
      <point x="269" y="12" type="curve" smooth="yes"/>
      <point x="245" y="8"/>
      <point x="220" y="4"/>
      <point x="196" y="2" type="curve" smooth="yes"/>
      <point x="156" y="-3"/>
      <point x="107" y="-5"/>
      <point x="74" y="22" type="curve" smooth="yes"/>
      <point x="51" y="40"/>
      <point x="40" y="69"/>
      <point x="35" y="97" type="curve" smooth="yes"/>
      <point x="28" y="133"/>
      <point x="28" y="170"/>
      <point x="31" y="206" type="curve" smooth="yes"/>
      <point x="36" y="283"/>
      <point x="52" y="359"/>
      <point x="64" y="435" type="curve" smooth="yes"/>
      <point x="66" y="450"/>
      <point x="68" y="464"/>
      <point x="69" y="479" type="curve" smooth="yes"/>
      <point x="71" y="499"/>
      <point x="70" y="519"/>
      <point x="69" y="539" type="curve" smooth="yes"/>
      <point x="66" y="585"/>
      <point x="62" y="635"/>
      <point x="81" y="679" type="curve" smooth="yes"/>
      <point x="85" y="688"/>
      <point x="90" y="696"/>
      <point x="96" y="704" type="curve" smooth="yes"/>
      <point x="103" y="713"/>
      <point x="111" y="721"/>
      <point x="119" y="728" type="curve" smooth="yes"/>
      <point x="136" y="744"/>
      <point x="157" y="756"/>
      <point x="179" y="762" type="curve" smooth="yes"/>
      <point x="223" y="775"/>
      <point x="271" y="765"/>
      <point x="310" y="743" type="curve" smooth="yes"/>
      <point x="313" y="742"/>
      <point x="316" y="744"/>
      <point x="313" y="746" type="curve"/>
    </contour>
    <contour>
      <point x="40" y="350" type="line"/>
      <point x="102" y="350"/>
      <point x="163" y="359"/>
      <point x="225" y="370" type="curve" smooth="yes"/>
      <point x="228" y="371"/>
      <point x="225" y="375"/>
      <point x="223" y="374" type="curve" smooth="yes"/>
      <point x="162" y="363"/>
      <point x="101" y="354"/>
      <point x="40" y="354" type="curve" smooth="yes"/>
      <point x="36" y="354"/>
      <point x="37" y="350"/>
      <point x="40" y="350" type="curve"/>
    </contour>
    <contour>
      <point x="184" y="820" type="curve" smooth="yes"/>
      <point x="176" y="821"/>
      <point x="168" y="816"/>
      <point x="168" y="809" type="curve" smooth="yes"/>
      <point x="168" y="802"/>
      <point x="177" y="795"/>
      <point x="184" y="796" type="curve" smooth="yes"/>
      <point x="191" y="797"/>
      <point x="198" y="802"/>
      <point x="198" y="808" type="curve" smooth="yes"/>
      <point x="198" y="814"/>
      <point x="192" y="819"/>
    </contour>
    <contour>
      <point x="229" y="798" type="curve"/>
      <point x="239" y="799"/>
      <point x="246" y="803"/>
      <point x="246" y="810" type="curve" smooth="yes"/>
      <point x="246" y="817"/>
      <point x="238" y="823"/>
      <point x="230" y="823" type="curve" smooth="yes"/>
      <point x="222" y="823"/>
      <point x="216" y="817"/>
      <point x="216" y="809" type="curve"/>
      <point x="217" y="799"/>
      <point x="224" y="798"/>
    </contour>
    <contour>
      <point x="184" y="816" type="curve" smooth="yes"/>
      <point x="190" y="816"/>
      <point x="193" y="812"/>
      <point x="193" y="808" type="curve" smooth="yes"/>
      <point x="193" y="804"/>
      <point x="188" y="799"/>
      <point x="184" y="799" type="curve" smooth="yes"/>
      <point x="180" y="799"/>
      <point x="172" y="802"/>
      <point x="173" y="808" type="curve" smooth="yes"/>
      <point x="174" y="815"/>
      <point x="178" y="816"/>
    </contour>
    <contour>
      <point x="229" y="802" type="curve" smooth="yes"/>
      <point x="225" y="802"/>
      <point x="221" y="804"/>
      <point x="220" y="809" type="curve" smooth="yes"/>
      <point x="219" y="814"/>
      <point x="226" y="819"/>
      <point x="230" y="819" type="curve" smooth="yes"/>
      <point x="234" y="819"/>
      <point x="243" y="815"/>
      <point x="242" y="809" type="curve" smooth="yes"/>
      <point x="241" y="803"/>
      <point x="233" y="802"/>
    </contour>
  </outline>
</glyph>
<glyph name="Iacute" format="1">
  <advance width="266.0"/>
  <unicode hex="00CD"/>
  <outline>
    <contour>
      <point x="60" y="758" type="line"/>
      <point x="77" y="760"/>
      <point x="93" y="756"/>
      <point x="106" y="744" type="curve" smooth="yes"/>
      <point x="120" y="731"/>
      <point x="128" y="712"/>
      <point x="134" y="694" type="curve" smooth="yes"/>
      <point x="142" y="670"/>
      <point x="146" y="643"/>
      <point x="149" y="617" type="curve" smooth="yes"/>
      <point x="152" y="586"/>
      <point x="154" y="555"/>
      <point x="154" y="523" type="curve" smooth="yes"/>
      <point x="154" y="455"/>
      <point x="149" y="387"/>
      <point x="143" y="320" type="curve" smooth="yes"/>
      <point x="139" y="265"/>
      <point x="133" y="211"/>
      <point x="128" y="157" type="curve" smooth="yes"/>
      <point x="127" y="139"/>
      <point x="126" y="121"/>
      <point x="125" y="103" type="curve" smooth="yes"/>
      <point x="124" y="85"/>
      <point x="122" y="67"/>
      <point x="122" y="49" type="curve" smooth="yes"/>
      <point x="122" y="34"/>
      <point x="124" y="17"/>
      <point x="135" y="5" type="curve" smooth="yes"/>
      <point x="141" y="-2"/>
      <point x="151" y="-5"/>
      <point x="160" y="-6" type="curve" smooth="yes"/>
      <point x="162" y="-6"/>
      <point x="162" y="-1"/>
      <point x="159" y="-1" type="curve" smooth="yes"/>
      <point x="119" y="2"/>
      <point x="125" y="55"/>
      <point x="127" y="84" type="curve" smooth="yes"/>
      <point x="129" y="104"/>
      <point x="129" y="125"/>
      <point x="131" y="145" type="curve" smooth="yes"/>
      <point x="135" y="197"/>
      <point x="141" y="250"/>
      <point x="146" y="302" type="curve" smooth="yes"/>
      <point x="152" y="369"/>
      <point x="157" y="436"/>
      <point x="157" y="504" type="curve" smooth="yes"/>
      <point x="158" y="563"/>
      <point x="157" y="624"/>
      <point x="142" y="681" type="curve" smooth="yes"/>
      <point x="133" y="715"/>
      <point x="116" y="758"/>
      <point x="76" y="763" type="curve" smooth="yes"/>
      <point x="70" y="764"/>
      <point x="65" y="764"/>
      <point x="59" y="763" type="curve" smooth="yes"/>
      <point x="57" y="762"/>
      <point x="58" y="758"/>
      <point x="60" y="758" type="curve"/>
    </contour>
    <contour>
      <point x="84" y="771" type="curve"/>
      <point x="69" y="778"/>
      <point x="18" y="833"/>
      <point x="14" y="841" type="curve"/>
      <point x="14" y="841"/>
      <point x="15" y="845"/>
      <point x="19" y="843" type="curve"/>
      <point x="34" y="823"/>
      <point x="70" y="784"/>
      <point x="87" y="774" type="curve"/>
      <point x="89" y="771"/>
      <point x="85" y="771"/>
    </contour>
  </outline>
</glyph>
<glyph name="Icircumflex" format="1">
  <advance width="237"/>
  <unicode hex="00CE"/>
  <outline>
    <contour>
      <point x="60" y="758" type="line"/>
      <point x="77" y="760"/>
      <point x="93" y="756"/>
      <point x="106" y="744" type="curve" smooth="yes"/>
      <point x="120" y="731"/>
      <point x="128" y="712"/>
      <point x="134" y="694" type="curve" smooth="yes"/>
      <point x="142" y="670"/>
      <point x="146" y="643"/>
      <point x="149" y="617" type="curve" smooth="yes"/>
      <point x="152" y="586"/>
      <point x="154" y="555"/>
      <point x="154" y="523" type="curve" smooth="yes"/>
      <point x="154" y="455"/>
      <point x="149" y="387"/>
      <point x="143" y="320" type="curve" smooth="yes"/>
      <point x="139" y="265"/>
      <point x="133" y="211"/>
      <point x="128" y="157" type="curve" smooth="yes"/>
      <point x="127" y="139"/>
      <point x="126" y="121"/>
      <point x="125" y="103" type="curve" smooth="yes"/>
      <point x="124" y="85"/>
      <point x="122" y="67"/>
      <point x="122" y="49" type="curve" smooth="yes"/>
      <point x="122" y="34"/>
      <point x="124" y="17"/>
      <point x="135" y="5" type="curve" smooth="yes"/>
      <point x="141" y="-2"/>
      <point x="151" y="-5"/>
      <point x="160" y="-6" type="curve" smooth="yes"/>
      <point x="162" y="-6"/>
      <point x="162" y="-1"/>
      <point x="159" y="-1" type="curve" smooth="yes"/>
      <point x="119" y="2"/>
      <point x="125" y="55"/>
      <point x="127" y="84" type="curve" smooth="yes"/>
      <point x="129" y="104"/>
      <point x="129" y="125"/>
      <point x="131" y="145" type="curve" smooth="yes"/>
      <point x="135" y="197"/>
      <point x="141" y="250"/>
      <point x="146" y="302" type="curve" smooth="yes"/>
      <point x="152" y="369"/>
      <point x="157" y="436"/>
      <point x="157" y="504" type="curve" smooth="yes"/>
      <point x="158" y="563"/>
      <point x="157" y="624"/>
      <point x="142" y="681" type="curve" smooth="yes"/>
      <point x="133" y="715"/>
      <point x="116" y="758"/>
      <point x="76" y="763" type="curve" smooth="yes"/>
      <point x="70" y="764"/>
      <point x="65" y="764"/>
      <point x="59" y="763" type="curve" smooth="yes"/>
      <point x="57" y="762"/>
      <point x="58" y="758"/>
      <point x="60" y="758" type="curve"/>
    </contour>
    <contour>
      <point x="12" y="773" type="curve"/>
      <point x="16" y="776"/>
      <point x="85" y="851"/>
      <point x="116" y="862" type="curve"/>
      <point x="116" y="862"/>
      <point x="120" y="863"/>
      <point x="125" y="862" type="curve" smooth="yes"/>
      <point x="130" y="861"/>
      <point x="206" y="787"/>
      <point x="219" y="770" type="curve"/>
      <point x="219" y="770"/>
      <point x="217" y="766"/>
      <point x="214" y="766" type="curve"/>
      <point x="203" y="781"/>
      <point x="135" y="854"/>
      <point x="126" y="856" type="curve" smooth="yes"/>
      <point x="117" y="858"/>
      <point x="118" y="855"/>
      <point x="115" y="855" type="curve" smooth="yes"/>
      <point x="101" y="854"/>
      <point x="57" y="811"/>
      <point x="16" y="771" type="curve" smooth="yes"/>
      <point x="13" y="768"/>
      <point x="12" y="773"/>
    </contour>
  </outline>
</glyph>
<glyph name="Idieresis" format="1">
  <advance width="206.0"/>
  <unicode hex="00CF"/>
  <outline>
    <contour>
      <point x="29" y="758" type="line"/>
      <point x="46" y="760"/>
      <point x="62" y="756"/>
      <point x="75" y="744" type="curve" smooth="yes"/>
      <point x="89" y="731"/>
      <point x="97" y="712"/>
      <point x="103" y="694" type="curve" smooth="yes"/>
      <point x="111" y="670"/>
      <point x="115" y="643"/>
      <point x="118" y="617" type="curve" smooth="yes"/>
      <point x="121" y="586"/>
      <point x="123" y="555"/>
      <point x="123" y="523" type="curve" smooth="yes"/>
      <point x="123" y="455"/>
      <point x="118" y="387"/>
      <point x="112" y="320" type="curve" smooth="yes"/>
      <point x="108" y="265"/>
      <point x="102" y="211"/>
      <point x="97" y="157" type="curve" smooth="yes"/>
      <point x="96" y="139"/>
      <point x="95" y="121"/>
      <point x="94" y="103" type="curve" smooth="yes"/>
      <point x="93" y="85"/>
      <point x="91" y="67"/>
      <point x="91" y="49" type="curve" smooth="yes"/>
      <point x="91" y="34"/>
      <point x="93" y="17"/>
      <point x="104" y="5" type="curve" smooth="yes"/>
      <point x="110" y="-2"/>
      <point x="120" y="-5"/>
      <point x="129" y="-6" type="curve" smooth="yes"/>
      <point x="131" y="-6"/>
      <point x="131" y="-1"/>
      <point x="128" y="-1" type="curve" smooth="yes"/>
      <point x="88" y="2"/>
      <point x="94" y="55"/>
      <point x="96" y="84" type="curve" smooth="yes"/>
      <point x="98" y="104"/>
      <point x="98" y="125"/>
      <point x="100" y="145" type="curve" smooth="yes"/>
      <point x="104" y="197"/>
      <point x="110" y="250"/>
      <point x="115" y="302" type="curve" smooth="yes"/>
      <point x="121" y="369"/>
      <point x="126" y="436"/>
      <point x="126" y="504" type="curve" smooth="yes"/>
      <point x="127" y="563"/>
      <point x="126" y="624"/>
      <point x="111" y="681" type="curve" smooth="yes"/>
      <point x="102" y="715"/>
      <point x="85" y="758"/>
      <point x="45" y="763" type="curve" smooth="yes"/>
      <point x="39" y="764"/>
      <point x="34" y="764"/>
      <point x="28" y="763" type="curve" smooth="yes"/>
      <point x="26" y="762"/>
      <point x="27" y="758"/>
      <point x="29" y="758" type="curve"/>
    </contour>
    <contour>
      <point x="63" y="820" type="curve" smooth="yes"/>
      <point x="55" y="821"/>
      <point x="47" y="816"/>
      <point x="47" y="809" type="curve" smooth="yes"/>
      <point x="47" y="802"/>
      <point x="56" y="795"/>
      <point x="63" y="796" type="curve" smooth="yes"/>
      <point x="70" y="797"/>
      <point x="77" y="802"/>
      <point x="77" y="808" type="curve" smooth="yes"/>
      <point x="77" y="814"/>
      <point x="71" y="819"/>
    </contour>
    <contour>
      <point x="108" y="798" type="curve"/>
      <point x="118" y="799"/>
      <point x="125" y="803"/>
      <point x="125" y="810" type="curve" smooth="yes"/>
      <point x="125" y="817"/>
      <point x="117" y="823"/>
      <point x="109" y="823" type="curve" smooth="yes"/>
      <point x="101" y="823"/>
      <point x="95" y="817"/>
      <point x="95" y="809" type="curve"/>
      <point x="96" y="799"/>
      <point x="103" y="798"/>
    </contour>
    <contour>
      <point x="63" y="816" type="curve" smooth="yes"/>
      <point x="69" y="816"/>
      <point x="72" y="812"/>
      <point x="72" y="808" type="curve" smooth="yes"/>
      <point x="72" y="804"/>
      <point x="67" y="799"/>
      <point x="63" y="799" type="curve" smooth="yes"/>
      <point x="59" y="799"/>
      <point x="51" y="802"/>
      <point x="52" y="808" type="curve" smooth="yes"/>
      <point x="53" y="815"/>
      <point x="57" y="816"/>
    </contour>
    <contour>
      <point x="108" y="802" type="curve" smooth="yes"/>
      <point x="104" y="802"/>
      <point x="100" y="804"/>
      <point x="99" y="809" type="curve" smooth="yes"/>
      <point x="98" y="814"/>
      <point x="105" y="819"/>
      <point x="109" y="819" type="curve" smooth="yes"/>
      <point x="113" y="819"/>
      <point x="122" y="815"/>
      <point x="121" y="809" type="curve" smooth="yes"/>
      <point x="120" y="803"/>
      <point x="112" y="802"/>
    </contour>
  </outline>
</glyph>
